<svg width="609" height="454" viewBox="0 0 609 454" fill="none" xmlns="http://www.w3.org/2000/svg">
<path d="M304.187 453.992C472.025 453.992 608.084 437.705 608.084 417.614C608.084 397.523 472.025 381.236 304.187 381.236C136.349 381.236 0.290039 397.523 0.290039 417.614C0.290039 437.705 136.349 453.992 304.187 453.992Z" fill="#F2EDFE" fill-opacity="0.98"/>
<path d="M541.784 106.432V358.011C541.784 368.382 533.378 376.788 523.003 376.788H94.2559C83.8823 376.788 75.4747 368.382 75.4747 358.011V106.432C75.4747 96.0583 83.881 87.6508 94.2559 87.6508H523.003C533.376 87.6508 541.784 96.057 541.784 106.432Z" fill="#2A1C42"/>
<path d="M541.784 232.217V358.008C541.784 368.38 533.376 376.787 523.004 376.787H94.2546C83.8823 376.787 75.4761 368.379 75.4761 358.008V232.217H541.784Z" fill="#2A1C42"/>
<path d="M521.07 119.218V345.221C521.07 351.87 515.679 357.263 509.031 357.263H108.233C104.679 357.263 101.482 355.722 99.2788 353.264C97.3554 351.139 96.1899 348.312 96.1899 345.22V119.218C96.1899 112.568 101.583 107.175 108.233 107.175H509.031C511.254 107.175 513.334 107.779 515.123 108.832C518.679 110.923 521.07 114.796 521.07 119.218Z" fill="white"/>
<path d="M521.07 119.218V345.221C521.07 351.87 515.679 357.263 509.031 357.263H108.233C104.679 357.263 101.482 355.722 99.2788 353.264C97.3554 351.139 96.1899 348.312 96.1899 345.22V119.218C96.1899 112.568 101.583 107.175 108.233 107.175H509.031C511.254 107.175 513.334 107.779 515.123 108.832C518.679 110.923 521.07 114.796 521.07 119.218Z" fill="white"/>
<path d="M109.759 203.457C109.759 205.26 111.219 206.719 113.021 206.719H182.208C184.01 206.719 185.47 205.26 185.47 203.457C185.47 201.655 184.01 200.195 182.208 200.195H113.021C111.22 200.195 109.759 201.657 109.759 203.457Z" fill="#F2EDFE" fill-opacity="0.98"/>
<path d="M109.759 220.106C109.759 221.908 111.219 223.368 113.021 223.368H182.208C184.01 223.368 185.47 221.908 185.47 220.106C185.47 218.304 184.01 216.844 182.208 216.844H113.021C111.22 216.844 109.759 218.304 109.759 220.106Z" fill="#F2EDFE" fill-opacity="0.98"/>
<path d="M109.759 236.307C109.759 237.862 111.2 239.123 112.977 239.123H181.227C183.004 239.123 184.446 237.863 184.446 236.307C184.446 234.753 183.004 233.491 181.227 233.491H112.977C111.2 233.491 109.759 234.753 109.759 236.307Z" fill="#F2EDFE" fill-opacity="0.98"/>
<path d="M109.759 261.19C109.759 262.992 111.219 264.452 113.021 264.452H182.208C184.01 264.452 185.47 262.992 185.47 261.19C185.47 259.388 184.01 257.928 182.208 257.928H113.021C111.22 257.928 109.759 259.389 109.759 261.19Z" fill="#F2EDFE" fill-opacity="0.98"/>
<path d="M109.759 277.839C109.759 279.641 111.219 281.101 113.021 281.101H182.208C184.01 281.101 185.47 279.641 185.47 277.839C185.47 276.037 184.01 274.577 182.208 274.577H113.021C111.22 274.577 109.759 276.037 109.759 277.839Z" fill="#F2EDFE" fill-opacity="0.98"/>
<path d="M109.759 294.486C109.759 296.289 111.219 297.748 113.021 297.748H182.208C184.01 297.748 185.47 296.289 185.47 294.486C185.47 292.684 184.01 291.224 182.208 291.224H113.021C111.22 291.224 109.759 292.685 109.759 294.486Z" fill="#F2EDFE" fill-opacity="0.98"/>
<path d="M431.314 203.457C431.314 205.26 432.774 206.719 434.577 206.719H503.763C505.565 206.719 507.025 205.26 507.025 203.457C507.025 201.655 505.565 200.195 503.763 200.195H434.577C432.776 200.195 431.314 201.657 431.314 203.457Z" fill="#F2EDFE" fill-opacity="0.98"/>
<path d="M431.314 220.106C431.314 221.908 432.774 223.368 434.577 223.368H503.763C505.565 223.368 507.025 221.908 507.025 220.106C507.025 218.304 505.565 216.844 503.763 216.844H434.577C432.776 216.844 431.314 218.304 431.314 220.106Z" fill="#F2EDFE" fill-opacity="0.98"/>
<path d="M431.314 236.307C431.314 237.862 432.756 239.123 434.533 239.123H502.783C504.56 239.123 506.001 237.863 506.001 236.307C506.001 234.753 504.56 233.491 502.783 233.491H434.533C432.756 233.491 431.314 234.753 431.314 236.307Z" fill="#F2EDFE" fill-opacity="0.98"/>
<path d="M431.314 261.19C431.314 262.992 432.774 264.452 434.577 264.452H503.763C505.565 264.452 507.025 262.992 507.025 261.19C507.025 259.388 505.565 257.928 503.763 257.928H434.577C432.776 257.928 431.314 259.389 431.314 261.19Z" fill="#F2EDFE" fill-opacity="0.98"/>
<path d="M431.314 277.839C431.314 279.641 432.774 281.101 434.577 281.101H503.763C505.565 281.101 507.025 279.641 507.025 277.839C507.025 276.037 505.565 274.577 503.763 274.577H434.577C432.776 274.577 431.314 276.037 431.314 277.839Z" fill="#F2EDFE" fill-opacity="0.98"/>
<path d="M431.314 294.486C431.314 296.289 432.774 297.748 434.577 297.748H503.763C505.565 297.748 507.025 296.289 507.025 294.486C507.025 292.684 505.565 291.224 503.763 291.224H434.577C432.776 291.224 431.314 292.685 431.314 294.486Z" fill="#F2EDFE" fill-opacity="0.98"/>
<path d="M521.07 119.218V131.785H96.1899V119.218C96.1899 112.568 101.583 107.175 108.233 107.175H509.031C511.254 107.175 513.334 107.779 515.123 108.832C518.679 110.923 521.07 114.796 521.07 119.218Z" fill="#F2EDFE" fill-opacity="0.98"/>
<path d="M518.896 112.329H98.3624C100.534 109.213 104.145 107.177 108.234 107.177H509.03C513.118 107.177 516.73 109.213 518.896 112.329Z" fill="#2A1C42"/>
<path d="M476.978 120.764C476.978 123.089 475.093 124.973 472.769 124.973C470.443 124.973 468.56 123.089 468.56 120.764C468.56 118.44 470.445 116.554 472.769 116.554C475.093 116.554 476.978 118.439 476.978 120.764Z" fill="#241A35"/>
<path d="M490.621 120.764C490.621 123.089 488.736 124.973 486.411 124.973C484.086 124.973 482.201 123.089 482.201 120.764C482.201 118.44 484.086 116.554 486.411 116.554C488.736 116.554 490.621 118.439 490.621 120.764Z" fill="#2A1C42"/>
<path d="M503.605 120.764C503.605 123.089 501.72 124.973 499.396 124.973C497.071 124.973 495.187 123.089 495.187 120.764C495.187 118.44 497.071 116.554 499.396 116.554C501.72 116.554 503.605 118.439 503.605 120.764Z" fill="#5E17EB"/>
<path d="M420.625 192.134V345.012H199.196V192.134H209.379L209.286 192.049L209.397 192.134H420.625Z" fill="#F2EDFE" fill-opacity="0.98"/>
<path d="M420.624 185.919H199.307V338.798H420.624V185.919Z" fill="#8256FF" fill-opacity="0.98"/>
<path d="M420.624 180.322H199.307V333.201H420.624V180.322Z" fill="#5E17EB"/>
<g opacity="0.5">
<path d="M214.52 231.873V298.357C214.52 300.57 212.727 302.362 210.514 302.362C208.302 302.362 206.509 300.57 206.509 298.357V231.873C206.509 229.661 208.302 227.868 210.514 227.868C212.725 227.868 214.52 229.661 214.52 231.873Z" fill="#5E17EB"/>
</g>
<g opacity="0.5">
<path d="M214.52 211.527V218.256C214.52 220.468 212.727 222.261 210.514 222.261C208.302 222.261 206.509 220.468 206.509 218.256V211.527C206.509 209.316 208.302 207.521 210.514 207.521C212.727 207.521 214.52 209.316 214.52 211.527Z" fill="#5E17EB"/>
</g>
<path d="M288.645 259.439L205.718 333.2H199.307V329.302L283.878 254.083L288.645 259.439Z" fill="#8256FF" fill-opacity="0.98"/>
<path d="M420.625 329.82V333.2H413.635L330.707 259.439L335.474 254.083L420.625 329.82Z" fill="#8256FF" fill-opacity="0.98"/>
<path d="M420.619 180.321L387.091 210.14L317.254 272.25C313.095 275.951 306.826 275.951 302.665 272.25L232.842 210.149L199.301 180.321H420.619Z" fill="#8256FF" fill-opacity="0.98"/>
<path d="M387.091 155.896V210.139L365.812 229.062L358.478 235.587L347.095 245.71L339.761 252.234L328.378 262.357L321.044 268.881L317.255 272.25C313.097 275.952 306.827 275.952 302.666 272.25L298.878 268.881L291.544 262.357L280.16 252.234L272.825 245.71L261.442 235.587L254.108 229.062L232.843 210.149V155.896C232.843 151.01 236.801 147.05 241.688 147.05H378.246C383.132 147.05 387.091 151.01 387.091 155.896Z" fill="#F2EDFE" fill-opacity="0.98"/>
<path d="M288.719 168.171H251.347C249.719 168.171 248.399 166.851 248.399 165.224V164.594C248.399 162.966 249.719 161.646 251.347 161.646H288.717C290.345 161.646 291.665 162.966 291.665 164.594V165.224C291.666 166.853 290.346 168.171 288.719 168.171Z" fill="#BBA3FE" fill-opacity="0.98"/>
<path d="M373.218 185.642H251.662C249.86 185.642 248.4 184.182 248.4 182.38C248.4 180.578 249.86 179.118 251.662 179.118H373.218C375.02 179.118 376.48 180.578 376.48 182.38C376.48 184.182 375.02 185.642 373.218 185.642Z" fill="#BBA3FE" fill-opacity="0.98"/>
<path d="M373.218 202.291H251.662C249.86 202.291 248.4 200.831 248.4 199.029C248.4 197.226 249.86 195.766 251.662 195.766H373.218C375.02 195.766 376.48 197.226 376.48 199.029C376.48 200.829 375.02 202.291 373.218 202.291Z" fill="#BBA3FE" fill-opacity="0.98"/>
<path d="M373.218 218.938H251.662C249.86 218.938 248.4 217.478 248.4 215.676C248.4 213.874 249.86 212.414 251.662 212.414H373.218C375.02 212.414 376.48 213.874 376.48 215.676C376.48 217.478 375.02 218.938 373.218 218.938Z" fill="#BBA3FE" fill-opacity="0.98"/>
<path d="M365.812 229.064L358.477 235.587H261.442L254.107 229.064H365.812Z" fill="#BBA3FE" fill-opacity="0.98"/>
<path d="M347.094 245.71L339.76 252.234H280.159L272.825 245.71H347.094Z" fill="#BBA3FE" fill-opacity="0.98"/>
<path d="M328.376 262.357L321.042 268.881H298.876L291.542 262.357H328.376Z" fill="#BBA3FE" fill-opacity="0.98"/>
<path d="M385.542 164.496H384.347C373.763 164.496 365.182 155.916 365.182 145.332V144.137C365.182 133.553 373.763 124.972 384.347 124.972H385.542C396.126 124.972 404.707 133.553 404.707 144.137V145.332C404.707 155.917 396.126 164.496 385.542 164.496Z" fill="#5E17EB"/>
<path d="M389.036 164.496H387.841C377.257 164.496 368.676 155.916 368.676 145.332V144.137C368.676 133.553 377.257 124.972 387.841 124.972H389.036C399.62 124.972 408.2 133.553 408.2 144.137V145.332C408.2 155.917 399.62 164.496 389.036 164.496Z" fill="#241A35"/>
<path d="M385.016 141.239L383.932 130.834H390.435L389.351 141.239H385.016ZM387.184 147.936C386.252 147.936 385.489 147.655 384.895 147.093C384.301 146.515 384.004 145.832 384.004 145.045C384.004 144.242 384.301 143.568 384.895 143.022C385.489 142.476 386.252 142.203 387.184 142.203C388.131 142.203 388.894 142.476 389.472 143.022C390.066 143.568 390.363 144.242 390.363 145.045C390.363 145.832 390.066 146.515 389.472 147.093C388.894 147.655 388.131 147.936 387.184 147.936Z" fill="white"/>
<path d="M585.342 366.734V368.343C585.342 376.346 582.775 383.746 578.417 389.766C571.771 398.958 560.957 404.939 548.745 404.939H68.5137C56.3019 404.939 45.4874 398.958 38.8421 389.766C34.4838 383.746 31.917 376.346 31.917 368.343V366.734H585.342Z" fill="#2A1C42"/>
<path d="M246.603 366.734V367.102C246.603 370 248.544 372.349 250.938 372.349H363.917C366.31 372.349 368.251 369.999 368.251 367.102V366.734H246.603Z" fill="white"/>
<path d="M578.417 389.766C571.771 398.958 560.957 404.938 548.745 404.938H68.5137C56.3019 404.938 45.4874 398.958 38.842 389.766H578.417Z" fill="#2A1C42"/>
<path d="M73.9736 343.114L69.1265 353.487L79.3749 353.647L83.3283 344.207L73.9736 343.114Z" fill="#FAB083"/>
<path d="M72.3525 352.839C72.3525 352.839 70.248 350.011 68.5763 350.132C66.9047 350.253 54.0096 360.506 49.5913 361.353C45.1731 362.2 45.5833 366.701 47.4322 366.701C52.7575 366.701 82.0841 366.488 82.0841 366.488C82.0841 366.488 83.0299 356.238 81.9043 353.104C80.7788 349.969 75.8078 353.581 72.3525 352.839Z" fill="#00000C"/>
<path d="M65.225 359.993C65.3808 360.039 65.5567 360.025 65.7085 359.938C66.0055 359.769 66.1081 359.392 65.9403 359.094C65.8843 358.994 64.535 356.651 62.7182 355.736C60.3019 354.516 58.4185 355.881 58.3386 355.941C58.0642 356.143 58.0069 356.532 58.2107 356.807C58.4145 357.081 58.8021 357.138 59.0765 356.935C59.1271 356.897 60.4391 355.977 62.1601 356.843C63.6399 357.589 64.852 359.686 64.864 359.708C64.9466 359.852 65.0785 359.949 65.225 359.993Z" fill="white"/>
<path d="M67.0698 358.251C67.2257 358.297 67.4002 358.283 67.5534 358.196C67.8504 358.027 67.9543 357.648 67.7851 357.351C67.7279 357.252 66.3799 354.909 64.563 353.993C62.1454 352.772 60.2633 354.139 60.1834 354.197C59.909 354.401 59.8517 354.789 60.0555 355.063C60.258 355.337 60.6469 355.395 60.9213 355.191C60.9733 355.155 62.2853 354.233 64.0049 355.099C65.4914 355.848 66.6969 357.943 66.7075 357.964C66.7915 358.108 66.922 358.207 67.0698 358.251Z" fill="white"/>
<path d="M62.7249 361.407C62.8821 361.454 63.0565 361.439 63.2084 361.353C63.5054 361.184 63.6093 360.805 63.4402 360.508C63.3829 360.41 62.0349 358.065 60.218 357.15C57.8005 355.929 55.9184 357.295 55.8384 357.354C55.564 357.558 55.5068 357.946 55.7106 358.22C55.9144 358.494 56.302 358.552 56.5764 358.348C56.6283 358.31 57.9403 357.39 59.6599 358.256C61.1465 359.004 62.3519 361.1 62.3626 361.121C62.4465 361.265 62.5784 361.363 62.7249 361.407Z" fill="white"/>
<path d="M71.054 346.496L75.5947 347.977L78.1189 348.127L82.4572 348.382C88.1888 343.849 103.649 330.208 106.662 322.164C106.662 322.164 121.096 361.435 148.6 361.435C150.385 361.435 151.128 345.405 146.645 340.619C146.645 340.619 121.293 293.371 104.859 298.386C97.4981 300.631 90.0523 311.345 71.054 346.496Z" fill="#342B4E"/>
<path d="M75.5947 347.977L78.1189 348.127C94.99 335.352 102.806 324.534 106.404 317.604C106.528 317.363 106.73 317.286 106.866 317.289C106.983 317.293 107.069 317.357 107.123 317.494C115.202 336.511 124.897 347.925 131.608 354.155C138.922 360.941 144.273 363.179 144.494 363.272L144.803 362.517L145.112 361.764C145.06 361.742 139.752 359.511 132.636 352.888C126.064 346.773 116.563 335.557 108.62 316.855C108.318 316.135 107.683 315.689 106.927 315.66C106.114 315.626 105.352 316.095 104.957 316.852C101.33 323.84 93.293 334.882 75.5947 347.977Z" fill="#00000C"/>
<path d="M87.0059 345.287C86.284 346.638 85.0439 348.544 83.8584 349.466C83.8584 349.466 74.1428 349.017 69.4182 346.643L71.5374 341.704C71.5374 341.704 79.271 344.527 87.0059 345.287Z" fill="#3B3E7D"/>
<path d="M147.911 260.287C147.911 260.287 129.084 282.762 121.176 286.454C117.704 288.075 114.276 288.647 111.744 288.737C110.894 288.769 108.683 288.59 108.562 288.587C108.551 288.587 108.542 288.59 108.542 288.59C99.147 287.425 88.1047 284.598 74.2892 278.971L76.3485 272.572C76.3485 272.572 84.6495 274.336 94.822 275.062C98.5729 275.326 107.226 275.722 110.425 276.239C111.218 275.884 111.998 275.499 112.759 275.082C126.798 267.504 136.063 252.075 136.063 252.075C140.507 253.743 145.608 256.86 147.911 260.287Z" fill="#241A35"/>
<path d="M76.6988 272.063C76.6988 272.063 74.7754 267.204 72.158 265.818C69.5407 264.431 62.0921 259.548 60.503 261.009C58.914 262.47 59.2416 269.486 65.919 275.351C70.172 279.087 74.4584 278.929 74.4584 278.929L76.6988 272.063Z" fill="#FAB083"/>
<path d="M60.0248 265.473L71.0191 275.744C71.4321 276.133 72.178 276.243 72.6882 275.997L79.4267 272.739C79.6359 272.636 79.7731 272.49 79.8317 272.325L79.8477 272.271L80.178 271.146L78.3904 270.469L61.0931 263.898L60.1554 263.545L59.8037 264.735L59.7771 264.817C59.7717 264.827 59.7704 264.836 59.7744 264.847C59.7331 265.054 59.8184 265.282 60.0248 265.473Z" fill="#18285D"/>
<path d="M73.0239 274.855L79.7651 271.596C80.2739 271.349 80.3512 270.839 79.9396 270.454L68.944 260.183C68.5324 259.798 67.7864 259.685 67.2776 259.932L60.5364 263.191C60.0276 263.437 59.9503 263.948 60.3632 264.332L71.3575 274.604C71.7705 274.988 72.5164 275.1 73.0239 274.855Z" fill="#3B3E7D"/>
<path d="M72.2059 273.014L77.4287 270.489C77.9375 270.244 78.0148 269.732 77.6032 269.347L69.0518 261.359C68.6402 260.975 67.8929 260.861 67.3854 261.108L62.1627 263.633C61.6552 263.88 61.5766 264.39 61.9895 264.775L70.5409 272.763C70.9525 273.148 71.6984 273.261 72.2059 273.014Z" fill="#58619B"/>
<path d="M72.3458 263.36C72.3458 263.36 70.7794 263.604 70.6195 264.95C70.4597 266.297 71.9169 265.762 72.8533 265.466C73.7897 265.17 74.6342 265.467 74.7621 265.619C75.1723 266.1 75.1017 262.96 72.3458 263.36Z" fill="#FAB083"/>
<path d="M65.3435 270.671C65.3435 270.671 62.886 266.633 61.0025 264.427C59.7478 262.956 59.1071 265.089 59.9662 266.575C60.8254 268.062 62.5197 271.09 65.3435 270.671Z" fill="#FAB083"/>
<path d="M161.129 237.005C161.129 237.005 172.995 237.065 178.404 241.955C183.813 246.845 178.65 256.78 172.783 258.054C166.915 259.327 148.594 257.156 146.689 254.015C144.783 250.875 145.991 237.246 161.129 237.005Z" fill="#241A35"/>
<path d="M179.841 343.488L185.609 306.296L184.358 254.989L170.558 250.323L169.818 250.072L166.721 249.025L164.262 248.195L149.692 250.203L147.322 250.528L146.485 250.644L136.062 252.078C135.964 285.053 139.13 292.175 133.035 318.999C129.971 329.112 141.224 364.944 179.841 343.488Z" fill="#241A35"/>
<path d="M160.139 258.197C170.578 258.159 173.001 248.959 173.025 248.865C173.077 248.659 172.952 248.45 172.745 248.398C172.54 248.345 172.33 248.471 172.278 248.678C172.187 249.036 169.963 257.39 160.139 257.426C160.085 257.426 160.031 257.426 159.977 257.426C159.77 257.437 159.591 257.597 159.591 257.808C159.589 258.022 159.761 258.195 159.974 258.196C160.029 258.197 160.086 258.197 160.139 258.197Z" fill="#241A35"/>
<path d="M150.332 256.756C150.541 256.755 150.713 256.587 150.716 256.377C150.718 256.165 150.549 255.989 150.337 255.985C150.2 255.982 147.164 255.86 146.38 251.757C146.34 251.548 146.14 251.411 145.93 251.451C145.721 251.491 145.583 251.693 145.625 251.901C146.532 256.644 150.287 256.755 150.325 256.755C150.325 256.755 150.329 256.756 150.332 256.756Z" fill="#241A35"/>
<path d="M167.187 308.808C167.187 308.808 168.883 321.751 165.43 328.085C165.43 328.085 148.262 329.288 135.78 324.379C135.78 324.379 138.898 315.344 138.946 306.524L167.187 308.808Z" fill="#241A35"/>
<path d="M158.019 295.11C158.029 295.11 158.041 295.11 158.052 295.108C158.264 295.09 158.421 294.902 158.401 294.69C157.538 285.094 161.133 260.869 161.169 260.626C161.201 260.415 161.056 260.219 160.845 260.187C160.635 260.155 160.439 260.301 160.407 260.511C160.37 260.756 156.761 285.072 157.634 294.758C157.652 294.959 157.82 295.111 158.019 295.11Z" fill="white"/>
<path d="M145.321 293.23C145.332 293.23 145.344 293.23 145.354 293.229C145.566 293.21 145.722 293.022 145.703 292.811C144.84 283.215 148.556 258.801 148.594 258.556C148.626 258.345 148.482 258.149 148.271 258.117C148.061 258.084 147.865 258.229 147.832 258.44C147.794 258.686 144.064 283.194 144.935 292.881C144.955 293.081 145.124 293.232 145.321 293.23Z" fill="white"/>
<path d="M194.757 356.474C194.757 356.474 190.482 362.27 190.834 365.269C191.187 368.268 195.058 373.92 198.152 374.193C201.246 374.466 194.597 366.93 196.166 367.174C198.065 367.468 210.886 377.987 213.593 377.987C216.298 377.987 210.409 373.098 208.115 371.862C208.115 371.862 214.181 374.575 215.593 375.987C217.005 377.399 218.029 374.372 210.973 370.077C210.973 370.077 217.446 373.752 217.887 373.811C219.327 374.003 215.219 369.186 211.681 367.444C211.681 367.444 216.871 369.971 217.398 369.981C218.128 369.997 216.563 368.299 212.711 366.164C209.246 364.243 203.568 355.425 203.568 355.425L194.757 356.474Z" fill="#FAB083"/>
<path d="M184.359 254.989C184.359 254.989 198.747 282.625 202.024 311.532L203.568 355.425C203.568 355.425 202.089 358.553 194.757 356.474L187.665 312.586L182.231 292.504C182.231 292.504 179.76 267.792 184.359 254.989Z" fill="#241A35"/>
<path d="M140.166 225.108C141.695 233.754 149.943 239.525 158.589 237.996C167.235 236.468 173.005 228.219 171.477 219.573C169.948 210.927 161.7 205.157 153.054 206.685C144.408 208.213 138.638 216.46 140.166 225.108Z" fill="#00000C"/>
<path d="M139.926 222.255C139.926 222.255 135.276 221.814 135.1 217.408C134.951 213.657 139.673 215.271 138.789 212.476C137.904 209.681 136.604 207.227 140.181 205.856C143.31 204.658 143.756 206.867 147.439 202.895C151.79 198.203 157.208 206.329 161.739 205.802C168.422 205.023 169.919 208.616 171.098 211.493C172.277 214.371 170.103 216.92 170.103 216.92L139.926 222.255Z" fill="#00000C"/>
<path d="M143.571 229.024C143.571 229.024 140.506 226.156 139.146 229.216C137.784 232.275 141.819 239.89 145.986 237.121L143.571 229.024Z" fill="#FC8664"/>
<path d="M144.559 234.799C144.393 234.829 144.219 234.746 144.142 234.586C143.002 232.217 140.241 231.663 140.213 231.657C140.002 231.617 139.865 231.415 139.905 231.204C139.945 230.994 140.147 230.857 140.357 230.895C140.486 230.919 143.528 231.521 144.841 234.249C144.933 234.442 144.853 234.674 144.66 234.766C144.627 234.783 144.594 234.794 144.559 234.799Z" fill="#FD664D"/>
<path d="M141.73 234.004C141.659 234.016 141.585 234.01 141.513 233.98C141.316 233.898 141.222 233.67 141.305 233.473C141.318 233.439 141.653 232.662 142.533 232.065C142.709 231.945 142.951 231.992 143.071 232.169C143.191 232.346 143.146 232.587 142.967 232.707C142.287 233.168 142.021 233.767 142.02 233.772C141.967 233.899 141.855 233.983 141.73 234.004Z" fill="#FD664D"/>
<path d="M164.23 240.96L165.65 248.991C165.65 248.991 162.974 253.113 159.784 253.964C156.598 254.818 153.95 251.323 153.95 251.323L152.584 243.6L164.23 240.96Z" fill="#FAB083"/>
<path d="M164.23 240.96L164.86 244.523C163.114 247.319 159.36 248.604 153.499 248.771L152.586 243.601L164.23 240.96Z" fill="#FC8664"/>
<path d="M169.05 218.838C169.453 221.986 169.846 225.94 169.802 229.166C169.791 229.971 169.752 230.733 169.68 231.423C169.036 237.639 166.603 248.535 154.021 246.4C148.464 245.458 145.013 240.064 142.887 234.335C141.445 230.443 140.615 226.4 140.155 223.487C139.688 220.512 140.827 217.518 143.148 215.6C149.434 210.405 157.066 210.578 162.249 211.587C165.846 212.283 168.587 215.21 169.05 218.838Z" fill="#FAB083"/>
<path d="M149.706 229.02C149.858 229.878 149.538 230.65 148.993 230.746C148.448 230.842 147.884 230.225 147.732 229.369C147.58 228.512 147.9 227.739 148.444 227.643C148.989 227.545 149.554 228.162 149.706 229.02Z" fill="#00000C"/>
<path d="M161.262 226.977C161.414 227.834 161.094 228.607 160.55 228.703C160.005 228.799 159.44 228.182 159.288 227.326C159.136 226.468 159.456 225.695 160.001 225.599C160.546 225.503 161.11 226.12 161.262 226.977Z" fill="#00000C"/>
<path d="M144.667 224.995C144.667 224.995 148.488 222.645 151.893 223.452L151.889 224.967C151.889 224.967 148.329 224.808 145.196 226.652C144.864 226.012 144.522 225.738 144.667 224.995Z" fill="#00000C"/>
<path d="M163.464 221.671C163.464 221.671 159.07 220.773 156.147 222.7L156.671 224.121C156.671 224.121 159.961 222.75 163.536 223.408C163.627 222.696 163.854 222.321 163.464 221.671Z" fill="#00000C"/>
<path d="M156.253 234.161C156.896 234.047 157.49 233.685 157.582 233.626C157.762 233.511 157.816 233.273 157.702 233.092C157.589 232.911 157.349 232.856 157.168 232.971C156.848 233.172 156.059 233.537 155.663 233.386C155.585 233.357 155.477 233.292 155.412 233.064C155.039 231.756 154.614 227.226 154.61 227.18C154.59 226.967 154.401 226.811 154.189 226.831C153.975 226.85 153.819 227.039 153.839 227.252C153.856 227.442 154.275 231.901 154.668 233.277C154.815 233.795 155.14 234.016 155.387 234.111C155.659 234.213 155.961 234.213 156.253 234.161Z" fill="#FC8664"/>
<path d="M151.866 237.344C152.455 238.857 154.001 241.561 157.494 240.943C160.993 240.325 161.509 237.513 161.525 235.636L151.866 237.344Z" fill="white"/>
<path d="M157.798 242.943C158.785 242.769 159.533 242.12 159.565 242.093C159.726 241.952 159.742 241.707 159.601 241.547C159.46 241.386 159.215 241.37 159.055 241.511C159.05 241.517 158.433 242.046 157.663 242.181C156.957 242.307 156.21 242.02 156.202 242.018C156.003 241.939 155.778 242.035 155.698 242.235C155.62 242.433 155.716 242.658 155.916 242.738C155.954 242.753 156.865 243.108 157.798 242.943Z" fill="#FC8664"/>
<path d="M143.629 231.637C143.063 230.115 142.418 228.134 142.442 227.057C142.489 225.149 143.822 223.796 142.999 222.109C142.176 220.417 143.716 218.175 145.044 217.614C146.368 217.049 149.72 217.166 152.632 215.095C155.412 213.116 160.871 213.216 162.076 215.011C163.533 217.186 162.157 217.659 165.447 219.708C166.758 220.524 165.883 223.402 165.995 225.153C166.048 225.959 166.104 226.347 166.285 227.19L166.373 227.619L169.771 227.018C169.675 224.289 169.37 221.314 169.053 218.838C168.59 215.21 165.846 212.286 162.249 211.587C157.065 210.578 149.435 210.403 143.147 215.6C140.828 217.518 139.688 220.511 140.157 223.485C140.52 225.795 141.118 228.819 142.071 231.914L143.629 231.637Z" fill="#00000C"/>
<path d="M168.524 228.751C168.356 227.864 168.262 226.963 168.263 226.062C168.263 224.827 168.419 223.68 169.555 222.965C170.47 222.389 171.521 222.195 172.466 223.174C174.793 225.582 174.243 234.453 169.379 233.281L168.524 228.751Z" fill="#FAB083"/>
<path d="M169.815 230.648C169.972 230.586 170.077 230.425 170.06 230.248C169.802 227.631 171.873 225.722 171.893 225.703C172.051 225.559 172.063 225.314 171.921 225.156C171.778 224.997 171.533 224.984 171.375 225.128C171.277 225.216 168.992 227.311 169.289 230.325C169.31 230.538 169.499 230.693 169.712 230.673C169.748 230.668 169.783 230.66 169.815 230.648Z" fill="#FC8664"/>
<path d="M171.818 228.496C171.885 228.47 171.946 228.426 171.992 228.363C172.117 228.19 172.078 227.948 171.905 227.822C171.876 227.801 171.187 227.311 170.124 227.259C169.911 227.248 169.728 227.414 169.719 227.627C169.708 227.84 169.874 228.022 170.087 228.033C170.909 228.073 171.445 228.446 171.451 228.45C171.56 228.53 171.7 228.543 171.818 228.496Z" fill="#FC8664"/>
<path d="M180.805 351.805C180.555 352.941 180.118 354.103 179.449 355.259C177.437 358.734 173.31 362.201 165.649 364.986C149.767 370.755 119.399 368.046 119.399 368.046C119.767 379.893 91.5334 419.804 91.5334 419.804L90.1468 418.907L88.8415 418.063L83.3989 414.543C83.3989 414.543 102.048 347.505 114.729 345.586C159.591 338.797 179.84 343.488 179.84 343.488C180.812 345.727 181.503 348.673 180.805 351.805Z" fill="#342B4E"/>
<path d="M180.805 351.805C180.555 352.941 180.118 354.103 179.449 355.259C172.912 360.547 161.274 363.613 144.768 364.396C132.578 364.971 121.481 364.05 118.548 363.772C115.649 384.173 94.5731 413.033 90.1469 418.909C89.7273 419.465 89.4595 419.812 89.3676 419.932C89.2171 420.131 88.9867 420.234 88.7562 420.234C88.5911 420.234 88.4232 420.179 88.2821 420.069C87.9451 419.812 87.8838 419.324 88.1449 418.987C88.1688 418.956 88.4166 418.637 88.8415 418.064C93.0346 412.474 114.705 382.723 117.112 362.838C117.16 362.416 117.541 362.116 117.96 362.161C118.459 362.216 167.565 367.352 180.805 351.805Z" fill="#18285D"/>
<path d="M84.4498 414.542L77.8125 422.309L85.7392 427.056L91.5334 419.802L84.4498 414.542Z" fill="#FAB083"/>
<path d="M93.5101 419.644C92.5338 421.925 91.8531 422.661 90.308 423.788C90.308 423.788 85.3143 421.498 80.1835 417.024L83.3976 412.683C83.3976 412.683 87.1951 415.115 93.5101 419.644Z" fill="#58619B"/>
<path d="M80.0636 422.843C80.0636 422.843 79.656 419.343 78.1481 418.61C76.6403 417.879 60.3446 420.3 56.0955 418.822C51.8465 417.343 49.9497 421.445 51.5494 422.37C56.1595 425.036 81.6553 439.529 81.6553 439.529C81.6553 439.529 87.6027 431.128 88.1981 427.851C88.7961 424.576 82.6836 425.214 80.0636 422.843Z" fill="#241A35"/>
<path d="M70.3121 425.47C70.424 425.588 70.5825 425.663 70.7583 425.664C71.1006 425.666 71.3777 425.391 71.3817 425.049C71.383 424.934 71.387 422.231 70.2721 420.53C68.7909 418.264 66.4759 418.504 66.3787 418.516C66.039 418.554 65.7953 418.862 65.8352 419.202C65.8738 419.541 66.1815 419.785 66.5212 419.745C66.5838 419.738 68.1809 419.597 69.2372 421.209C70.1456 422.595 70.1442 425.018 70.1442 425.042C70.1429 425.208 70.2068 425.358 70.3121 425.47Z" fill="white"/>
<path d="M72.7816 424.884C72.8935 425.002 73.052 425.077 73.2278 425.078C73.5701 425.08 73.8485 424.805 73.8512 424.463C73.8525 424.348 73.8565 421.644 72.7429 419.943C71.2604 417.676 68.9467 417.917 68.8495 417.928C68.5098 417.967 68.2661 418.274 68.306 418.614C68.3447 418.954 68.651 419.198 68.992 419.158C69.0546 419.152 70.6517 419.011 71.708 420.621C72.6204 422.013 72.6137 424.431 72.6137 424.455C72.6124 424.621 72.6763 424.772 72.7816 424.884Z" fill="white"/>
<path d="M67.4389 425.443C67.5508 425.562 67.7093 425.636 67.8851 425.638C68.2274 425.639 68.5058 425.365 68.5085 425.022C68.5085 424.908 68.5138 422.204 67.3989 420.503C65.9178 418.236 63.6041 418.477 63.5055 418.488C63.1658 418.526 62.9221 418.834 62.9621 419.174C63.0007 419.513 63.3084 419.757 63.648 419.717C63.7106 419.712 65.309 419.571 66.364 421.181C67.2751 422.573 67.2711 424.99 67.2697 425.014C67.2697 425.18 67.3337 425.331 67.4389 425.443Z" fill="white"/>
<path d="M446.778 410.75L444.924 419.23C444.924 419.23 450.005 422.999 453.595 420.958L455.463 412.679L446.778 410.75Z" fill="#FAB083"/>
<path d="M446.657 418.722C446.657 418.722 445.236 415.836 443.714 415.668C442.193 415.5 428.92 422.569 424.813 422.597C420.707 422.626 420.063 427.617 421.534 428.447C423.21 429.393 452.78 433.839 452.78 433.839C452.78 433.839 455.678 423.541 455.188 420.542C454.697 417.541 449.636 419.959 446.657 418.722Z" fill="#241A35"/>
<path d="M439.074 423.965C439.206 424.033 439.365 424.049 439.517 423.995C439.812 423.893 439.967 423.57 439.865 423.276C439.83 423.177 439.007 420.85 437.529 419.729C435.562 418.233 433.644 419.148 433.563 419.187C433.283 419.324 433.168 419.662 433.305 419.942C433.442 420.222 433.78 420.338 434.061 420.2C434.113 420.175 435.444 419.566 436.845 420.628C438.051 421.542 438.79 423.626 438.798 423.648C438.847 423.79 438.95 423.901 439.074 423.965Z" fill="white"/>
<path d="M441.018 422.706C441.15 422.774 441.31 422.79 441.462 422.737C441.756 422.634 441.912 422.312 441.81 422.017C441.775 421.919 440.952 419.592 439.473 418.47C437.505 416.973 435.589 417.888 435.508 417.928C435.228 418.065 435.112 418.404 435.25 418.685C435.387 418.964 435.725 419.08 436.006 418.943C436.058 418.919 437.389 418.309 438.79 419.371C440.001 420.29 440.735 422.369 440.743 422.39C440.792 422.531 440.893 422.641 441.018 422.706Z" fill="white"/>
<path d="M436.595 424.82C436.727 424.888 436.887 424.904 437.038 424.851C437.333 424.748 437.489 424.426 437.386 424.131C437.351 424.033 436.528 421.706 435.05 420.583C433.081 419.086 431.166 420.002 431.084 420.041C430.805 420.178 430.689 420.518 430.826 420.797C430.963 421.077 431.302 421.193 431.583 421.056C431.635 421.032 432.967 420.422 434.366 421.483C435.576 422.402 436.311 424.482 436.319 424.503C436.368 424.645 436.471 424.756 436.595 424.82Z" fill="white"/>
<path d="M488.723 281.202C487.963 284.468 487.204 287.832 486.433 291.279C481.889 311.648 476.972 335.067 469.74 358.509C467.1 379.529 462.497 392.884 456.302 414.048C455.688 414.169 454.795 414.193 453.759 414.132C453.373 414.108 452.964 414.072 452.542 414.012C449.963 413.699 446.877 412.855 444.924 411.384C444.924 411.384 448.684 385.76 453.891 356.917C456.663 341.526 461.581 303.837 463.92 285.589C464.715 279.322 465.209 275.356 465.209 275.356L484.926 280.262L485.251 280.334L486.095 280.551L488.723 281.202Z" fill="#2A1C42"/>
<path d="M488.723 281.202C487.963 284.468 487.204 287.832 486.433 291.279L463.918 285.59C464.713 279.323 465.208 275.358 465.208 275.358L484.925 280.263L485.25 280.335L486.093 280.552L488.723 281.202Z" fill="#8256FF" fill-opacity="0.98"/>
<path d="M486.092 280.539V280.551L467.411 358.147C467.387 358.352 463.77 383.758 453.755 414.132C453.369 414.108 452.96 414.072 452.538 414.011C462.566 383.638 466.193 358.183 466.229 357.918L484.922 280.262L485.248 280.334L486.092 280.539Z" fill="#8256FF" fill-opacity="0.98"/>
<path d="M502.474 410.033L503.228 421.173L511.362 419.224V410.033H502.474Z" fill="#FAB083"/>
<path d="M506.082 418.87C506.082 418.87 510.402 417.723 511.596 417.747C512.789 417.772 520.777 426.725 523.47 427.255C528.353 428.215 528.351 435.842 525.379 436.217C516.781 437.302 502.08 433.654 502.08 433.654C502.08 433.654 500.736 423.866 501.328 420.797C501.92 417.728 503.679 419.77 506.082 418.87Z" fill="#241A35"/>
<path d="M513.191 427.232C513.038 427.266 512.872 427.239 512.73 427.144C512.457 426.961 512.385 426.59 512.569 426.319C512.631 426.228 514.093 424.075 515.902 423.328C518.308 422.331 520.017 423.777 520.088 423.838C520.338 424.053 520.364 424.43 520.148 424.679C519.934 424.928 519.557 424.955 519.308 424.739C519.261 424.699 518.069 423.721 516.355 424.428C514.882 425.037 513.568 426.965 513.555 426.983C513.468 427.115 513.335 427.2 513.191 427.232Z" fill="white"/>
<path d="M511.546 425.427C511.393 425.461 511.227 425.434 511.087 425.34C510.814 425.156 510.742 424.785 510.926 424.514C510.987 424.422 512.451 422.271 514.258 421.523C516.665 420.526 518.373 421.972 518.445 422.035C518.694 422.249 518.72 422.626 518.505 422.874C518.29 423.123 517.913 423.15 517.665 422.934C517.619 422.895 516.425 421.916 514.712 422.624C513.233 423.236 511.926 425.158 511.913 425.178C511.823 425.31 511.69 425.395 511.546 425.427Z" fill="white"/>
<path d="M515.488 428.768C515.334 428.801 515.168 428.775 515.028 428.68C514.755 428.496 514.683 428.126 514.867 427.853C514.928 427.762 516.391 425.61 518.2 424.863C520.606 423.865 522.314 425.311 522.386 425.373C522.635 425.589 522.662 425.964 522.446 426.213C522.232 426.462 521.855 426.489 521.607 426.273C521.56 426.235 520.367 425.256 518.654 425.963C517.174 426.574 515.867 428.499 515.854 428.518C515.766 428.652 515.633 428.737 515.488 428.768Z" fill="white"/>
<path d="M512.473 411.239C510.568 412.058 507.82 412.299 505.17 412.251C504.759 412.251 504.351 412.239 503.952 412.203C502.976 412.167 502.036 412.083 501.18 411.986L489.525 291.134L488.573 281.202L490.815 281.033L492.02 280.949L512.016 279.491C512.016 279.491 512.004 281.926 512.004 285.891C511.992 299.511 512.064 331.234 512.835 344.937C513.822 362.642 512.473 411.239 512.473 411.239Z" fill="#2A1C42"/>
<path d="M512.015 279.491C512.015 279.491 512.003 281.926 512.003 285.891L489.524 291.134L488.572 281.202L490.814 281.033L492.019 280.949L512.015 279.491Z" fill="#8C52FF"/>
<path d="M505.166 412.251C504.756 412.251 504.347 412.239 503.949 412.203L490.811 281.033L492.016 280.949L505.166 412.251Z" fill="#8C52FF"/>
<path d="M507.161 210.577L512.537 227.845L518.423 244.261C519.37 247.697 523.164 249.466 526.405 247.986C526.462 247.961 526.518 247.936 526.575 247.91C532.175 245.262 529.087 234.281 529.087 234.281L528.03 234.199C527.6 232.993 526.437 229.927 524.957 226.074C524.778 225.599 524.591 225.112 524.401 224.619C524.087 223.8 523.761 222.955 523.429 222.087C522.956 220.861 522.469 219.597 521.975 218.324C518.346 208.911 515.34 198.697 515.34 198.697L512.834 191.259L507.161 210.577Z" fill="#FAB083"/>
<path d="M523.063 238.051C523.063 238.051 523.834 225.541 526.503 222.881C529.173 220.221 531.609 219.206 534.113 219.296C536.616 219.387 538.971 219.697 538.816 220.727C538.816 220.727 544.567 219.858 547.135 221.348C549.701 222.838 539.53 224.142 536.511 224.221C533.491 224.299 531.895 225.987 531.774 227.786C531.651 229.586 529.909 241.507 529.909 241.507L523.063 238.051Z" fill="#FAB083"/>
<path d="M507.994 215.168C507.994 215.168 517.494 245.501 519.669 247.561C521.844 249.622 526.731 251.731 529.398 246.181C532.064 240.631 532.597 225.81 532.597 225.81L525.964 222.724L524.926 225.991L512.938 191.183C512.938 191.183 508.68 212.88 507.994 215.168Z" fill="#241A35"/>
<path d="M522.261 237.796C522.285 237.799 522.305 237.799 522.329 237.8C522.543 237.802 522.734 237.647 522.767 237.429C523.585 232.223 524.381 228.295 524.926 225.99C524.746 225.517 524.623 225.056 524.435 224.563C523.923 226.596 522.886 230.981 521.892 237.29C521.856 237.531 522.02 237.756 522.261 237.796Z" fill="#5E17EB"/>
<path d="M520.016 221.537L558.13 221.791C559.564 221.8 560.733 220.647 560.744 219.214V219.191C560.753 217.758 559.599 216.588 558.166 216.578L520.052 216.323C518.619 216.314 517.45 217.467 517.439 218.901V218.923C517.428 220.357 518.583 221.527 520.016 221.537Z" fill="#18285D"/>
<path d="M560.716 221.81L569.059 191.382C569.528 189.673 568.25 187.984 566.477 187.972L548.565 187.852C547.357 187.844 546.29 188.64 545.956 189.802L536.78 221.65L560.716 221.81Z" fill="#3B3E7D"/>
<path d="M545.956 189.8L536.856 221.386L534.808 221.373L543.909 189.787C544.246 188.626 545.31 187.828 546.519 187.836L548.567 187.849C547.357 187.841 546.293 188.639 545.956 189.8Z" fill="#18285D"/>
<path d="M550.451 206.167C549.973 208.174 551.215 209.812 553.225 209.826C555.235 209.839 557.254 208.222 557.732 206.215C558.212 204.207 556.969 202.569 554.959 202.556C552.949 202.542 550.931 204.159 550.451 206.167Z" fill="#58619B"/>
<path d="M406.629 179.254C405.88 179.342 405.162 179.26 404.552 178.939C402.94 178.096 401.6 177.258 400.827 176.75C400.367 176.435 400.103 176.253 400.103 176.253C400.103 176.253 400.085 176.253 400.071 176.266C399.895 176.297 399.027 176.423 397.567 175.592C395.925 174.648 395.068 173.056 395.276 172.181C395.477 171.306 396.616 171.079 396.616 171.079C396.616 171.079 396.043 170.248 396.327 169.342C396.611 168.43 398.429 167.964 398.429 167.964C398.429 167.964 397.919 166.818 398.831 166.07C399.7 165.346 401.631 166.718 401.802 166.825C401.543 166.554 395.754 160.489 397.471 160.45C399.227 160.413 405.325 165.994 405.614 166.12C405.897 166.252 407.383 166.151 408.823 166.347C410.264 166.536 410.975 167.196 411.624 169.373C412.272 171.551 412.066 175.065 412.066 175.065C412.512 175.398 413.375 176.175 413.892 176.552C413.892 176.552 414.209 176.724 414.241 176.743C415.324 177.366 432.308 186.861 437.752 191.109C437.759 191.109 437.759 191.115 437.764 191.115C437.959 191.266 438.268 191.392 438.677 191.505C444.271 193.021 468.379 191.203 468.379 191.203L469.626 204.387C469.626 204.387 445.417 205.822 433.875 200.076C424.769 195.545 410.177 181.903 410.177 181.903L406.629 179.254Z" fill="#FAB083"/>
<path d="M408.604 172.153C408.667 172.169 408.733 172.171 408.8 172.155C409.014 172.105 409.148 171.888 409.097 171.673L408.664 169.852C408.637 169.743 408.567 169.65 408.47 169.595C408.371 169.541 408.255 169.53 408.149 169.565C408.129 169.571 406.067 170.235 404.56 169.4C404.099 169.144 403.822 168.849 403.76 168.548C403.688 168.209 403.901 167.922 403.904 167.92C404.035 167.745 404.005 167.493 403.832 167.36C403.658 167.226 403.411 167.254 403.273 167.426C403.228 167.483 402.835 168.004 402.974 168.698C403.083 169.246 403.487 169.718 404.173 170.1C405.551 170.866 407.216 170.618 407.982 170.44L408.319 171.86C408.354 172.006 408.467 172.116 408.604 172.153Z" fill="#FC8664"/>
<path d="M400.069 176.262C400.09 176.254 400.102 176.251 400.102 176.251C400.102 176.251 400.364 176.438 400.829 176.744C401.722 176.126 402.027 175.183 402.286 174.391C402.51 173.702 402.706 173.105 403.192 172.763C403.696 172.411 403.985 171.95 404.142 171.478C404.299 171.025 404.331 170.558 404.312 170.17C404.307 170.024 404.296 169.888 404.28 169.771C404.242 169.462 404.183 169.256 404.176 169.229C404.115 169.016 403.894 168.891 403.681 168.953C403.469 169.012 403.345 169.233 403.405 169.446C403.407 169.45 403.415 169.482 403.427 169.541C403.481 169.782 403.59 170.444 403.42 171.081C403.317 171.464 403.111 171.841 402.73 172.109C402.025 172.603 401.768 173.385 401.522 174.143C401.243 175.001 400.977 175.82 400.069 176.262Z" fill="#FC8664"/>
<path d="M406.216 174.833C406.361 174.871 406.522 174.826 406.626 174.705C406.769 174.536 406.747 174.284 406.578 174.142C406.558 174.124 404.561 172.399 404.917 170.152C404.952 169.934 404.801 169.729 404.584 169.694C404.366 169.659 404.161 169.809 404.126 170.027C403.7 172.726 405.964 174.672 406.061 174.753C406.108 174.792 406.161 174.818 406.216 174.833Z" fill="#FC8664"/>
<path d="M514.037 279.86C504.513 282.063 496.817 283.188 489.215 283.258C489.169 283.258 489.122 283.263 489.077 283.258C489.03 283.263 488.985 283.258 488.936 283.258C481.333 283.188 473.642 282.063 464.114 279.86C462.781 262.785 468.615 251.976 467.966 232.835C467.961 232.67 467.954 232.502 467.949 232.337C467.919 231.509 467.882 230.69 467.842 229.874C467.766 228.322 467.674 226.786 467.568 225.276C467.512 224.447 467.449 223.625 467.385 222.813C466.072 206.276 463.452 193.174 464.873 191.382C466.416 189.434 470.34 187.137 474.328 185.004C478.11 182.986 481.948 181.115 483.871 179.834C485.779 180.666 487.299 181.12 488.936 181.113C488.98 181.113 489.029 181.113 489.077 181.108C489.122 181.113 489.17 181.113 489.215 181.113C490.851 181.121 492.372 180.667 494.282 179.834C496.066 181.021 499.428 182.677 502.855 184.483C507.023 186.68 511.291 189.099 512.938 191.18C514.419 193.051 511.763 207.376 510.586 224.96C510.534 225.75 510.485 226.544 510.438 227.347C510.337 229.08 510.253 230.839 510.192 232.618C510.189 232.69 510.186 232.762 510.185 232.832C510.16 233.535 510.145 234.227 510.138 234.907C509.953 252.777 515.32 263.411 514.037 279.86Z" fill="#241A35"/>
<path d="M504.489 258.273H504.487C494.887 258.231 486.694 253.863 481.511 250.205C475.906 246.251 472.508 242.243 472.475 242.203C472.311 242.008 472.336 241.717 472.531 241.551C472.727 241.388 473.017 241.413 473.181 241.607C473.214 241.647 476.549 245.578 482.064 249.465C487.135 253.039 495.141 257.308 504.489 257.349C504.745 257.35 504.95 257.558 504.949 257.812C504.95 258.068 504.744 258.273 504.489 258.273Z" fill="#5E17EB"/>
<path d="M494.486 261.535C486.156 261.535 477.849 256.788 477.472 256.57C477.251 256.442 477.177 256.159 477.305 255.938C477.433 255.717 477.715 255.643 477.936 255.769C478.033 255.825 487.807 261.408 496.473 260.511C496.731 260.482 496.954 260.67 496.981 260.923C497.008 261.176 496.822 261.404 496.569 261.43C495.875 261.502 495.18 261.535 494.486 261.535Z" fill="#5E17EB"/>
<path d="M487.111 203.179C486.894 203.179 486.699 203.025 486.658 202.803C486.61 202.553 486.775 202.311 487.026 202.264C498.729 200.044 502.257 192.515 502.29 192.439C502.396 192.207 502.669 192.103 502.902 192.209C503.133 192.314 503.237 192.587 503.132 192.82C502.984 193.148 499.368 200.863 487.197 203.172C487.168 203.176 487.139 203.179 487.111 203.179Z" fill="#5E17EB"/>
<path d="M490.045 188.755C483.324 189.448 480.861 181.31 480.837 181.226C480.785 181.049 480.886 180.865 481.064 180.814C481.241 180.763 481.425 180.863 481.476 181.04C481.572 181.366 483.903 189.044 490.366 188.042C496.023 187.17 495.708 180.824 495.692 180.555C495.681 180.371 495.818 180.213 496.003 180.202C496.187 180.191 496.344 180.33 496.356 180.514C496.36 180.586 496.728 187.735 490.467 188.7C490.325 188.723 490.184 188.74 490.045 188.755Z" fill="white"/>
<path d="M476.348 161.614C476.348 161.614 470.816 152.158 475.481 144.858C480.146 137.557 490.053 138.245 492.62 138.82C495.187 139.394 509.963 146.321 501.025 163.123L476.348 161.614Z" fill="#00000C"/>
<path d="M477.273 158.938C477.273 158.938 475.033 155.953 473.368 158.421C471.703 160.89 474.057 168.181 478.133 166.401L477.273 158.938Z" fill="#FC8664"/>
<path d="M477.243 164.148C477.093 164.148 476.954 164.048 476.912 163.896C476.28 161.645 473.948 160.732 473.924 160.723C473.747 160.655 473.658 160.457 473.724 160.279C473.792 160.102 473.991 160.012 474.168 160.08C474.277 160.121 476.846 161.119 477.574 163.711C477.626 163.893 477.518 164.084 477.335 164.136C477.306 164.144 477.274 164.148 477.243 164.148Z" fill="#FD664D"/>
<path d="M474.89 163.014C474.826 163.014 474.762 162.997 474.703 162.959C474.543 162.857 474.497 162.644 474.601 162.483C474.618 162.456 475.031 161.827 475.894 161.441C476.067 161.362 476.271 161.441 476.35 161.614C476.427 161.787 476.35 161.991 476.176 162.07C475.509 162.368 475.184 162.852 475.181 162.856C475.113 162.958 475.003 163.014 474.89 163.014Z" fill="#FD664D"/>
<path d="M500.346 158.938C500.346 158.938 502.585 155.953 504.25 158.421C505.915 160.89 503.561 168.181 499.485 166.401L500.346 158.938Z" fill="#FC8664"/>
<path d="M500.375 164.148C500.525 164.148 500.664 164.048 500.707 163.896C501.338 161.645 503.67 160.732 503.694 160.723C503.871 160.655 503.962 160.457 503.894 160.279C503.826 160.102 503.628 160.012 503.45 160.08C503.341 160.121 500.772 161.119 500.045 163.711C499.993 163.893 500.101 164.084 500.283 164.136C500.312 164.144 500.344 164.148 500.375 164.148Z" fill="#FD664D"/>
<path d="M502.729 163.014C502.793 163.014 502.858 162.997 502.915 162.959C503.075 162.857 503.122 162.644 503.018 162.483C503 162.456 502.587 161.827 501.724 161.441C501.551 161.362 501.347 161.441 501.269 161.614C501.191 161.787 501.269 161.991 501.442 162.07C502.109 162.368 502.434 162.852 502.437 162.856C502.505 162.958 502.615 163.014 502.729 163.014Z" fill="#FD664D"/>
<path d="M494.321 172.584V179.835C494.321 179.835 492.159 183.527 489.234 183.779C486.313 184.033 483.717 180.599 483.717 180.599V173.093L494.321 172.584Z" fill="#FAB083"/>
<path d="M494.321 172.584V175.801C492.359 177.979 488.874 178.523 483.717 177.761V173.093L494.321 172.584Z" fill="#FC8664"/>
<path d="M501.965 153.964C501.831 156.782 501.562 160.306 501.025 163.123C500.89 163.827 500.738 164.487 500.571 165.08C499.044 170.423 495.228 179.585 484.543 175.768C479.823 174.084 477.636 168.827 476.661 163.482C476 159.851 475.899 156.182 475.948 153.562C476 150.886 477.46 148.441 479.789 147.121C486.096 143.545 492.75 144.879 497.131 146.562C500.174 147.729 502.12 150.716 501.965 153.964Z" fill="#FAB083"/>
<path d="M485.929 143.641C485.929 143.641 500.028 166.256 501.973 157.962C504.728 146.207 496.305 138.934 485.929 143.641Z" fill="#00000C"/>
<path d="M485.343 143.64C475.96 143.709 471.293 154.371 475.645 155.633C481.7 157.39 486.951 148.819 488.567 145.846C487.48 145.128 486.391 144.413 485.343 143.64Z" fill="#00000C"/>
<path d="M502.437 138.569C502.437 143.693 498.282 147.848 493.158 147.848C488.034 147.848 483.879 143.693 483.879 138.569C483.879 133.445 488.034 129.29 493.158 129.29C498.282 129.289 502.437 133.444 502.437 138.569Z" fill="#00000C"/>
<path d="M477.588 154.62C477.588 154.62 478.318 157.456 477.322 159.363C476.326 161.27 476.873 164.539 477.322 168.213C477.322 168.213 475.738 165.974 475.646 162.387C475.554 158.798 476.14 155.813 475.646 154.379L477.588 154.62Z" fill="#00000C"/>
<path d="M499.742 154.62C499.742 154.62 499.012 157.456 500.008 159.363C501.005 161.27 500.457 164.539 500.008 168.213C500.008 168.213 501.592 165.974 501.684 162.387C501.776 158.798 501.19 155.813 501.684 154.379L499.742 154.62Z" fill="#00000C"/>
<path d="M484.103 159.363C484.103 160.137 483.703 160.764 483.212 160.764C482.72 160.764 482.321 160.137 482.321 159.363C482.321 158.589 482.72 157.962 483.212 157.962C483.705 157.962 484.103 158.589 484.103 159.363Z" fill="#00000C"/>
<path d="M495.107 159.363C495.107 160.137 494.707 160.764 494.216 160.764C493.724 160.764 493.324 160.137 493.324 159.363C493.324 158.589 493.724 157.962 494.216 157.962C494.707 157.962 495.107 158.589 495.107 159.363Z" fill="#00000C"/>
<path d="M481.448 155.191C482.189 154.982 483.682 154.625 485.259 154.62C485.675 154.618 485.992 154.987 485.919 155.396L485.916 155.407C485.857 155.733 485.566 155.964 485.235 155.948C484.162 155.897 481.346 156.049 480.017 156.587C479.989 156.355 480.126 156.102 480.32 155.878C480.613 155.537 481.016 155.312 481.448 155.191Z" fill="#00000C"/>
<path d="M495.843 155.219C495.103 155.01 493.608 154.653 492.032 154.648C491.617 154.646 491.3 155.015 491.373 155.424L491.374 155.435C491.433 155.761 491.725 155.992 492.055 155.976C493.127 155.925 495.945 156.077 497.274 156.615C497.301 156.383 497.165 156.13 496.97 155.906C496.678 155.567 496.276 155.342 495.843 155.219Z" fill="#00000C"/>
<path d="M488.929 165.757C488.665 165.757 488.4 165.71 488.18 165.578C487.979 165.457 487.729 165.213 487.679 164.736C487.549 163.471 487.873 159.502 487.886 159.334C487.902 159.145 488.067 159.003 488.257 159.018C488.447 159.034 488.588 159.2 488.572 159.39C488.568 159.43 488.239 163.463 488.364 164.664C488.385 164.873 488.471 164.948 488.533 164.985C488.857 165.179 489.604 164.981 489.915 164.855C490.09 164.783 490.291 164.868 490.363 165.044C490.435 165.22 490.351 165.421 490.176 165.493C490.086 165.531 489.51 165.757 488.929 165.757Z" fill="#FC8664"/>
<path d="M484.555 167.932C484.814 169.242 485.68 171.652 488.596 171.652C491.518 171.652 492.339 169.449 492.62 167.932H484.555Z" fill="white"/>
<path d="M488.555 173.663C487.713 173.663 486.969 173.21 486.939 173.19C486.778 173.091 486.727 172.879 486.827 172.716C486.927 172.555 487.139 172.504 487.3 172.604C487.305 172.608 487.913 172.975 488.553 172.975C489.247 172.975 489.869 172.607 489.876 172.603C490.038 172.504 490.25 172.558 490.349 172.72C490.446 172.883 490.395 173.093 490.233 173.192C490.202 173.212 489.446 173.663 488.555 173.663Z" fill="#FC8664"/>
<path d="M413.904 176.17L409.109 182.498C409.109 182.498 427.179 197.982 436.106 201.043C445.034 204.104 465.746 206.942 465.746 206.942C467.252 201.761 466.55 196.572 464.876 191.382C464.876 191.382 443.553 191.886 437.427 188.796C424.302 182.175 413.904 176.17 413.904 176.17Z" fill="#241A35"/>
<path d="M407.424 22.0724C407.304 22.0844 407.18 22.0684 407.062 22.0191C405.806 21.489 405.069 21.2413 405.061 21.2399C404.676 21.1107 404.468 20.6951 404.596 20.3102C404.725 19.9252 405.141 19.7175 405.526 19.8453C405.558 19.856 406.317 20.1104 407.632 20.6658C408.006 20.823 408.18 21.2546 408.023 21.6289C407.917 21.882 407.682 22.0445 407.424 22.0724Z" fill="#F2EDFE" fill-opacity="0.98"/>
<path d="M444.884 61.4956C445.383 62.829 445.852 64.2049 446.276 65.5836C446.381 65.9259 446.713 66.135 447.055 66.099C447.102 66.0937 447.148 66.0844 447.193 66.0711C447.581 65.9512 447.799 65.5409 447.68 65.1533C447.248 63.7454 446.77 62.3428 446.26 60.9815C446.117 60.6019 445.695 60.4087 445.314 60.5513C444.933 60.6925 444.741 61.116 444.884 61.4956Z" fill="#F2EDFE" fill-opacity="0.98"/>
<path d="M447.42 69.7487C447.757 71.13 448.062 72.5512 448.324 73.9751C448.395 74.3548 448.745 74.6118 449.124 74.5719C449.142 74.5705 449.162 74.5666 449.181 74.5639C449.58 74.4893 449.844 74.1057 449.77 73.7074C449.5 72.2569 449.19 70.809 448.848 69.4011C448.752 69.0068 448.354 68.7657 447.959 68.8616C447.566 68.9562 447.324 69.3544 447.42 69.7487Z" fill="#F2EDFE" fill-opacity="0.98"/>
<path d="M449.63 77.4197C449.227 77.473 448.942 77.8406 448.996 78.2429C449.082 78.9075 449.161 79.5789 449.23 80.2382C449.311 80.9988 449.382 81.7767 449.442 82.5466C449.474 82.9515 449.827 83.2539 450.232 83.2219C450.238 83.2206 450.245 83.2206 450.252 83.2192C450.646 83.1779 450.938 82.829 450.907 82.4307C450.846 81.6475 450.773 80.8563 450.691 80.0824C450.621 79.411 450.541 78.7277 450.453 78.0511C450.401 77.6541 450.043 77.3731 449.647 77.4144C449.642 77.4197 449.636 77.4197 449.63 77.4197Z" fill="#F2EDFE" fill-opacity="0.98"/>
<path d="M443.244 57.5023C443.377 57.7994 443.684 57.9659 443.993 57.9339C444.067 57.9259 444.143 57.9059 444.215 57.874C444.585 57.7088 444.752 57.2732 444.587 56.9029C443.987 55.5643 443.34 54.2296 442.659 52.9362C442.47 52.5766 442.027 52.4394 441.666 52.6272C441.307 52.8164 441.169 53.2612 441.358 53.6195C442.023 54.8863 442.658 56.193 443.244 57.5023Z" fill="#F2EDFE" fill-opacity="0.98"/>
<path d="M410.966 23.844C412.228 24.4887 413.502 25.1907 414.751 25.9312C414.892 26.0152 415.051 26.0458 415.203 26.0298C415.427 26.0058 415.636 25.8806 415.758 25.6728C415.965 25.3238 415.849 24.8723 415.5 24.6658C414.224 23.9106 412.922 23.1927 411.633 22.5347C411.272 22.3508 410.828 22.4934 410.645 22.8543C410.461 23.2166 410.605 23.6602 410.966 23.844Z" fill="#F2EDFE" fill-opacity="0.98"/>
<path d="M421.92 30.7664C422.076 30.8849 422.264 30.9316 422.444 30.9129C422.638 30.8929 422.823 30.7957 422.95 30.6279C423.196 30.3055 423.135 29.8447 422.813 29.5982C421.648 28.7098 420.443 27.844 419.229 27.0261C418.892 26.7997 418.437 26.8876 418.209 27.2246C417.981 27.5616 418.071 28.0185 418.408 28.2449C419.597 29.0454 420.779 29.8953 421.92 30.7664Z" fill="#F2EDFE" fill-opacity="0.98"/>
<path d="M434.27 42.7997C434.433 43.0022 434.681 43.0967 434.922 43.0714C435.056 43.0568 435.189 43.0048 435.303 42.9142C435.62 42.6612 435.672 42.1976 435.417 41.8806C434.503 40.7404 433.54 39.6109 432.553 38.5253C432.28 38.2256 431.815 38.203 431.514 38.476C431.213 38.7491 431.192 39.214 431.465 39.5137C432.432 40.5779 433.375 41.6835 434.27 42.7997Z" fill="#F2EDFE" fill-opacity="0.98"/>
<path d="M428.464 36.4088C428.627 36.5673 428.845 36.6352 429.054 36.6126C429.219 36.5953 429.379 36.522 429.503 36.3941C429.786 36.1038 429.78 35.6376 429.488 35.3552C428.443 34.3375 427.349 33.3359 426.236 32.3768C425.928 32.1117 425.465 32.1464 425.199 32.4541C424.934 32.7618 424.969 33.2253 425.277 33.4904C426.368 34.4308 427.44 35.4125 428.464 36.4088Z" fill="#F2EDFE" fill-opacity="0.98"/>
<path d="M439.228 49.8659C439.381 50.1163 439.66 50.2429 439.933 50.2136C440.038 50.2029 440.142 50.1683 440.238 50.1097C440.584 49.8979 440.693 49.445 440.482 49.0987C439.718 47.8493 438.906 46.6078 438.065 45.409C437.832 45.0774 437.374 44.9961 437.041 45.2292C436.709 45.4623 436.628 45.9205 436.861 46.2535C437.684 47.427 438.481 48.6431 439.228 49.8659Z" fill="#F2EDFE" fill-opacity="0.98"/>
<path d="M376.062 0.317543L370.141 22.6942L402.535 31.2662L408.457 8.88952L376.062 0.317543Z" fill="#5E17EB"/>
<path d="M392.324 17.0002L401.606 31.0088L402.543 31.2565L402.695 30.6865L393.23 16.4008L392.324 17.0002Z" fill="#8C52FF"/>
<path d="M370.28 22.1896L370.149 22.6851L371.172 22.9555L386.168 15.3711L385.678 14.4028L370.28 22.1896Z" fill="#8C52FF"/>
<path d="M408.467 8.8803L388.458 18.9995L376.071 0.307556L408.467 8.8803Z" fill="#4A02A6"/>
<path d="M501.015 49.1573C496.549 49.1573 492.916 45.5236 492.916 41.0574C492.916 36.5912 496.549 32.9575 501.015 32.9575C505.482 32.9575 509.115 36.5912 509.115 41.0574C509.115 45.5236 505.482 49.1573 501.015 49.1573ZM501.015 35.499C497.95 35.499 495.457 37.9925 495.457 41.0574C495.457 44.1223 497.95 46.6158 501.015 46.6158C504.08 46.6158 506.574 44.1223 506.574 41.0574C506.574 37.9925 504.08 35.499 501.015 35.499Z" fill="#241A35"/>
<path d="M542.181 57.3971C537.715 57.3971 534.081 53.7634 534.081 49.2972C534.081 44.831 537.715 41.1973 542.181 41.1973C546.647 41.1973 550.281 44.831 550.281 49.2972C550.28 53.7634 546.646 57.3971 542.181 57.3971ZM542.181 43.7387C539.116 43.7387 536.623 46.2322 536.623 49.2972C536.623 52.3621 539.116 54.8556 542.181 54.8556C545.246 54.8556 547.739 52.3621 547.739 49.2972C547.738 46.2322 545.246 43.7387 542.181 43.7387Z" fill="#5E17EB"/>
<path d="M561.685 73.9338C560.984 73.9338 560.415 73.365 560.415 72.6631V67.0607C560.415 66.3587 560.984 65.79 561.685 65.79C562.387 65.79 562.956 66.3587 562.956 67.0607V72.6631C562.956 73.3664 562.387 73.9338 561.685 73.9338Z" fill="#241A35"/>
<path d="M561.685 83.7387C560.984 83.7387 560.415 83.1699 560.415 82.468V76.8656C560.415 76.1636 560.984 75.5948 561.685 75.5948C562.387 75.5948 562.956 76.1636 562.956 76.8656V82.468C562.956 83.1699 562.387 83.7387 561.685 83.7387Z" fill="#241A35"/>
<path d="M569.549 76.0357H564.516C563.814 76.0357 563.245 75.4669 563.245 74.765C563.245 74.063 563.814 73.4943 564.516 73.4943H569.549C570.251 73.4943 570.82 74.063 570.82 74.765C570.82 75.4669 570.251 76.0357 569.549 76.0357Z" fill="#241A35"/>
<path d="M558.855 76.0357H553.821C553.119 76.0357 552.551 75.4669 552.551 74.765C552.551 74.063 553.119 73.4943 553.821 73.4943H558.855C559.557 73.4943 560.126 74.063 560.126 74.765C560.124 75.4669 559.556 76.0357 558.855 76.0357Z" fill="#241A35"/>
<path d="M518.426 64.7977C517.724 64.7977 517.155 64.2289 517.155 63.5269V57.9245C517.155 57.2226 517.724 56.6538 518.426 56.6538C519.128 56.6538 519.697 57.2226 519.697 57.9245V63.5269C519.697 64.2289 519.128 64.7977 518.426 64.7977Z" fill="#5E17EB"/>
<path d="M518.426 74.6025C517.724 74.6025 517.155 74.0337 517.155 73.3318V67.7294C517.155 67.0274 517.724 66.4587 518.426 66.4587C519.128 66.4587 519.697 67.0274 519.697 67.7294V73.3318C519.697 74.0337 519.128 74.6025 518.426 74.6025Z" fill="#5E17EB"/>
<path d="M526.29 66.8982H521.256C520.554 66.8982 519.986 66.3294 519.986 65.6275C519.986 64.9255 520.554 64.3568 521.256 64.3568H526.29C526.992 64.3568 527.561 64.9255 527.561 65.6275C527.561 66.3308 526.992 66.8982 526.29 66.8982Z" fill="#5E17EB"/>
<path d="M515.595 66.8982H510.562C509.86 66.8982 509.291 66.3294 509.291 65.6275C509.291 64.9255 509.86 64.3568 510.562 64.3568H515.595C516.297 64.3568 516.866 64.9255 516.866 65.6275C516.865 66.3308 516.296 66.8982 515.595 66.8982Z" fill="#5E17EB"/>
<path d="M27.1792 229.88C27.1792 234.347 23.5455 237.98 19.0793 237.98C14.6131 237.98 10.9794 234.347 10.9794 229.88C10.9794 225.414 14.6131 221.781 19.0793 221.781C23.5455 221.782 27.1792 225.416 27.1792 229.88ZM13.5208 229.88C13.5208 232.945 16.0143 235.439 19.0793 235.439C22.1442 235.439 24.6377 232.945 24.6377 229.88C24.6377 226.815 22.1442 224.322 19.0793 224.322C16.0143 224.322 13.5208 226.815 13.5208 229.88Z" fill="#241A35"/>
<path d="M35.4189 188.716C35.4189 193.182 31.7852 196.816 27.319 196.816C22.8528 196.816 19.2191 193.182 19.2191 188.716C19.2191 184.25 22.8528 180.616 27.319 180.616C31.7852 180.616 35.4189 184.25 35.4189 188.716ZM21.7606 188.716C21.7606 191.781 24.2541 194.275 27.319 194.275C30.3839 194.275 32.8774 191.781 32.8774 188.716C32.8774 185.651 30.3839 183.158 27.319 183.158C24.2541 183.158 21.7606 185.651 21.7606 188.716Z" fill="#5E17EB"/>
<path d="M51.9557 169.21C51.9557 169.912 51.387 170.481 50.685 170.481H45.0826C44.3807 170.481 43.8119 169.912 43.8119 169.21C43.8119 168.508 44.3807 167.94 45.0826 167.94H50.685C51.387 167.941 51.9557 168.51 51.9557 169.21Z" fill="#241A35"/>
<path d="M61.7605 169.21C61.7605 169.912 61.1918 170.481 60.4898 170.481H54.8874C54.1855 170.481 53.6167 169.912 53.6167 169.21C53.6167 168.508 54.1855 167.94 54.8874 167.94H60.4898C61.1918 167.941 61.7605 168.51 61.7605 169.21Z" fill="#241A35"/>
<path d="M54.0577 161.346V166.38C54.0577 167.082 53.4889 167.651 52.787 167.651C52.085 167.651 51.5162 167.082 51.5162 166.38V161.346C51.5162 160.644 52.085 160.076 52.787 160.076C53.4889 160.076 54.0577 160.646 54.0577 161.346Z" fill="#241A35"/>
<path d="M54.0577 172.042V177.076C54.0577 177.778 53.4889 178.347 52.787 178.347C52.085 178.347 51.5162 177.778 51.5162 177.076V172.042C51.5162 171.34 52.085 170.771 52.787 170.771C53.4889 170.771 54.0577 171.34 54.0577 172.042Z" fill="#241A35"/>
<path d="M42.8195 212.471C42.8195 213.173 42.2507 213.742 41.5488 213.742H35.9464C35.2444 213.742 34.6757 213.173 34.6757 212.471C34.6757 211.769 35.2444 211.2 35.9464 211.2H41.5488C42.2507 211.2 42.8195 211.769 42.8195 212.471Z" fill="#5E17EB"/>
<path d="M52.6243 212.471C52.6243 213.173 52.0556 213.742 51.3536 213.742H45.7512C45.0492 213.742 44.4805 213.173 44.4805 212.471C44.4805 211.769 45.0492 211.2 45.7512 211.2H51.3536C52.0556 211.2 52.6243 211.769 52.6243 212.471Z" fill="#5E17EB"/>
<path d="M44.9201 204.606V209.639C44.9201 210.341 44.3514 210.91 43.6494 210.91C42.9474 210.91 42.3787 210.341 42.3787 209.639V204.606C42.3787 203.904 42.9474 203.335 43.6494 203.335C44.3527 203.335 44.9201 203.905 44.9201 204.606Z" fill="#5E17EB"/>
<path d="M44.9201 215.302V220.335C44.9201 221.037 44.3514 221.606 43.6494 221.606C42.9474 221.606 42.3787 221.037 42.3787 220.335V215.302C42.3787 214.6 42.9474 214.031 43.6494 214.031C44.3527 214.031 44.9201 214.6 44.9201 215.302Z" fill="#5E17EB"/>
<path d="M154.951 37.2159V62.3055C154.951 65.6222 157.642 68.3128 160.959 68.3128H206.514L220.267 73.2465C221.679 73.754 223.031 72.3661 222.49 70.9688L217.288 57.5329V37.2146C217.288 33.8979 214.597 31.2073 211.278 31.2073H160.959C157.642 31.2086 154.951 33.8992 154.951 37.2159Z" fill="#4A02A6"/>
<path d="M194.528 50.4747C194.528 52.875 196.474 54.821 198.873 54.821C201.272 54.821 203.219 52.875 203.219 50.4747C203.219 48.0744 201.273 46.1297 198.873 46.1297C196.472 46.1297 194.528 48.0744 194.528 50.4747Z" fill="#8C52FF"/>
<path d="M180.771 50.4747C180.771 52.875 182.717 54.821 185.116 54.821C187.516 54.821 189.461 52.875 189.461 50.4747C189.461 48.0744 187.516 46.1297 185.116 46.1297C182.717 46.1284 180.771 48.0744 180.771 50.4747Z" fill="#8C52FF"/>
<path d="M167.015 50.4747C167.015 52.875 168.961 54.821 171.362 54.821C173.762 54.821 175.708 52.875 175.708 50.4747C175.708 48.0744 173.762 46.1297 171.362 46.1297C168.96 46.1284 167.015 48.0744 167.015 50.4747Z" fill="#8C52FF"/>
</svg>
