<svg width="557" height="563" viewBox="0 0 557 563" fill="none" xmlns="http://www.w3.org/2000/svg">
<g clip-path="url(#clip0_16_568)">
<mask id="mask0_16_568" style="mask-type:luminance" maskUnits="userSpaceOnUse" x="0" y="-1" width="557" height="564">
<path fill-rule="evenodd" clip-rule="evenodd" d="M0 563H557V-6.34193e-05H0V563Z" fill="white"/>
</mask>
<g mask="url(#mask0_16_568)">
<mask id="mask1_16_568" style="mask-type:luminance" maskUnits="userSpaceOnUse" x="0" y="0" width="557" height="563">
<path fill-rule="evenodd" clip-rule="evenodd" d="M0 0.202734V563H556.527V0.202734H0Z" fill="white"/>
</mask>
<g mask="url(#mask1_16_568)">
<path d="M475.026 288.417C583.693 351.232 583.693 453.073 475.025 515.889C366.355 578.704 190.169 578.704 81.5009 515.889C-27.1671 453.075 -27.1671 351.232 81.5023 288.417C190.171 225.603 366.358 225.603 475.026 288.417Z" fill="#F3F6F4"/>
<path d="M364.48 455.406C387.978 468.988 387.978 491.013 364.479 504.596C340.98 518.18 302.879 518.18 279.378 504.596C255.88 491.013 255.88 468.99 279.379 455.406C302.879 441.822 340.98 441.822 364.48 455.406Z" fill="#DAE5E2"/>
<path d="M290.659 362.23L129.703 455.286C125.174 457.903 117.265 457.575 112.036 454.553L54.892 421.522C49.6632 418.498 49.0945 413.926 53.6231 411.309L214.578 318.254C219.108 315.636 227.016 315.964 232.246 318.988L289.391 352.018C294.62 355.041 295.187 359.613 290.659 362.23Z" fill="#DAE5E2"/>
<path d="M463.973 394.723L476.651 402.097C476.651 402.097 470.253 381.65 473.804 361.082C475.144 353.318 477.966 349.462 478.961 347.39C479.957 345.318 487.6 332.489 480.871 326.575C474.143 320.66 458.352 332.425 459.06 364.102C459.425 380.361 463.973 394.723 463.973 394.723Z" fill="#8256FF" fill-opacity="0.98"/>
<path d="M473.758 400.414L470.364 398.44C470.446 398.297 470.468 398.121 470.406 397.954C470.358 397.823 465.637 384.673 465.887 363.524C466.134 342.516 477.092 331.352 477.202 331.241C477.428 331.017 477.428 330.653 477.204 330.428C477.092 330.314 476.945 330.258 476.797 330.258C476.651 330.258 476.504 330.314 476.392 330.425C476.278 330.538 464.99 342.005 464.737 363.512C464.515 382.258 468.174 394.816 469.111 397.711L463.973 394.723C463.973 394.723 459.425 380.361 459.06 364.102C459.045 363.407 459.037 362.717 459.037 362.041C459.041 337.013 469.564 325.1 476.9 325.1C478.395 325.1 479.757 325.595 480.871 326.575C482.888 328.348 483.615 330.742 483.615 333.283C483.615 339.214 479.658 345.939 478.961 347.39C477.966 349.461 475.144 353.318 473.804 361.082C473.034 365.542 472.732 369.995 472.73 374.235C472.73 376.195 472.794 378.108 472.905 379.956C470.938 381.854 468.694 384.049 468.694 387.928C468.693 390.897 470.005 394.851 473.758 400.414Z" fill="#2B008C"/>
<path d="M469.867 398.728C469.632 398.728 469.412 398.583 469.326 398.35C469.278 398.218 464.483 384.889 464.737 363.513C464.99 342.005 476.278 330.538 476.392 330.425C476.616 330.202 476.98 330.201 477.204 330.428C477.428 330.653 477.428 331.017 477.202 331.241C477.092 331.352 466.134 342.516 465.887 363.524C465.637 384.673 470.359 397.823 470.406 397.954C470.516 398.252 470.363 398.583 470.064 398.692L469.867 398.728Z" fill="white"/>
<path d="M473.806 400.484L494.751 412.818C494.751 412.818 504.342 411.404 503.616 402.365C502.89 393.326 498.993 391.197 503.845 387.225C508.697 383.254 509.949 382.991 509.718 379.098C509.486 375.205 506.869 373.508 505.639 371.966C504.407 370.422 500.977 367.187 503.392 362.492C505.805 357.797 509.075 353.262 504.22 351.111C501.321 349.826 496.446 351.435 493.214 354.87C489.981 358.304 487.316 360.774 484.254 361.571C481.193 362.368 474.809 362.432 475.025 367.714C475.24 372.995 476.609 374.819 475.329 377.163C472.918 381.581 462.623 383.959 473.806 400.484Z" fill="#8256FF" fill-opacity="0.98"/>
<path d="M494.751 412.818L473.806 400.484C470.016 394.884 468.693 390.909 468.694 387.928C468.695 382.113 473.735 380.084 475.329 377.163C475.727 376.435 475.869 375.757 475.869 375.01C475.87 373.353 475.173 371.355 475.025 367.714C475.021 367.626 475.02 367.539 475.02 367.455C475.02 362.429 481.244 362.355 484.254 361.571C487.316 360.774 489.981 358.304 493.214 354.87C495.697 352.231 499.149 350.67 501.93 350.67C502.768 350.67 503.548 350.813 504.22 351.111C506.054 351.923 506.73 353.077 506.729 354.451C506.726 356.712 504.894 359.572 503.392 362.492C502.788 363.666 502.55 364.748 502.551 365.735C502.555 368.698 504.715 370.808 505.639 371.966C506.869 373.508 509.486 375.205 509.718 379.098C509.735 379.387 509.743 379.655 509.743 379.908C509.743 383.049 508.337 383.548 503.845 387.225C502.045 388.698 501.449 389.919 501.448 391.333C501.448 393.728 503.159 396.68 503.616 402.365C503.641 402.69 503.655 403.008 503.655 403.315C503.661 411.504 494.751 412.818 494.751 412.818Z" fill="#943BFF"/>
<path d="M482.334 406.082C482.038 406.082 481.786 405.854 481.761 405.553C481.737 405.24 479.457 373.971 501.155 353.439C501.387 353.22 501.749 353.23 501.968 353.461C502.186 353.693 502.177 354.058 501.946 354.275C480.656 374.422 482.883 405.152 482.91 405.46C482.934 405.776 482.698 406.054 482.382 406.08L482.334 406.082Z" fill="white"/>
<path d="M486.09 379.286C485.792 379.286 485.539 379.056 485.517 378.752C484.91 370.55 479.208 366.33 479.149 366.289C478.893 366.102 478.835 365.743 479.021 365.484C479.204 365.228 479.564 365.167 479.822 365.354C480.075 365.536 486.016 369.911 486.665 378.668C486.689 378.984 486.45 379.261 486.134 379.285L486.09 379.286Z" fill="white"/>
<path d="M484.543 384.621C484.406 384.621 484.269 384.573 484.158 384.473C483.922 384.261 483.904 383.898 484.116 383.662C484.342 383.408 489.803 377.498 502.433 379.234C502.747 379.278 502.967 379.569 502.924 379.884C502.88 380.198 502.591 380.416 502.277 380.376C490.295 378.728 485.023 384.376 484.971 384.432C484.858 384.558 484.701 384.621 484.543 384.621Z" fill="white"/>
<path d="M79.8807 376.763L73.6202 390.038C73.6202 390.038 67.3012 369.567 52.7199 354.646C47.2167 349.015 42.709 347.442 40.7155 346.301C38.7207 345.16 25.1557 338.938 27.3459 330.246C29.5347 321.553 49.2039 322.271 66.5724 348.758C75.4876 362.353 79.8807 376.763 79.8807 376.763Z" fill="#8256FF" fill-opacity="0.98"/>
<path d="M75.0484 387.009C74.9057 371.52 68.9137 370.463 64.156 369.676C61.1326 364.661 57.3416 359.375 52.7199 354.646C47.2167 349.015 42.709 347.442 40.7155 346.301C38.8687 345.244 27.1055 339.833 27.1075 332.139C27.1076 331.523 27.1833 330.891 27.3459 330.246C28.1193 327.174 31.0753 325.278 35.3406 325.278C43.1472 325.278 55.3408 331.63 66.5724 348.758C70.1872 354.27 73.0583 359.916 75.1947 364.681V376.127C72.9044 370.441 68.6926 361.598 61.5637 351.496C49.1675 333.931 33.3735 330.9 33.2161 330.871C33.1813 330.865 33.147 330.863 33.113 330.863C32.837 330.863 32.5981 331.056 32.5472 331.335C32.4912 331.648 32.698 331.947 33.0105 332.005C33.164 332.033 48.5142 335.001 60.6241 352.161C69.0111 364.044 73.3145 374.147 75.1947 379.338V386.7L75.0484 387.009Z" fill="#2B008C"/>
<path d="M76.9699 383.51C76.7134 383.51 76.4792 383.338 76.4128 383.078C76.3776 382.944 72.8148 369.433 60.6241 352.161C48.5142 335.001 33.164 332.033 33.0105 332.005C32.698 331.947 32.4912 331.648 32.5472 331.335C32.6044 331.023 32.8986 330.816 33.2161 330.871C33.3735 330.9 49.1675 333.931 61.5637 351.496C73.8857 368.956 77.4916 382.655 77.5268 382.791C77.6061 383.099 77.4201 383.412 77.1129 383.492L76.9699 383.51Z" fill="white"/>
<path d="M75.0491 387.093L64.791 409.148C64.791 409.148 56.0918 413.43 51.567 405.575C47.0424 397.719 49.0438 393.753 42.7989 393.238C36.5527 392.725 35.3723 393.219 33.3578 389.883C31.3422 386.546 32.5341 383.662 32.6734 381.693C32.8126 379.723 33.8042 375.11 29.1547 372.614C24.5064 370.12 19.2439 368.243 22.0236 363.713C23.6826 361.008 28.6094 359.565 33.2175 360.556C37.8252 361.549 41.4195 362.069 44.3916 360.986C47.3653 359.902 52.6576 356.328 55.4736 360.8C58.2895 365.272 58.1958 367.551 60.5785 368.754C65.0668 371.022 74.8929 367.132 75.0491 387.093Z" fill="#8256FF" fill-opacity="0.98"/>
<path d="M59.5169 410.312C56.851 410.312 53.7316 409.333 51.567 405.575C47.0424 397.719 49.0438 393.753 42.7989 393.238C36.5527 392.725 35.3723 393.219 33.3578 389.883C32.4563 388.39 32.1965 386.988 32.1971 385.718C32.1978 384.149 32.5964 382.781 32.6734 381.693C32.7191 381.046 32.8566 380.116 32.8563 379.068C32.8559 376.923 32.2785 374.291 29.1547 372.614C25.4007 370.599 21.246 368.988 21.2506 366.057C21.2517 365.358 21.4889 364.584 22.0236 363.713C23.3263 361.589 26.6445 360.243 30.2403 360.243C31.2238 360.243 32.2276 360.344 33.2175 360.556C36.0179 361.161 38.4445 361.589 40.5841 361.589C41.9649 361.589 43.2259 361.41 44.3916 360.986C46.279 360.299 49.1009 358.607 51.6304 358.607C53.0862 358.607 54.4449 359.167 55.4736 360.8C58.2895 365.272 58.1958 367.551 60.5785 368.754C65.0668 371.022 74.8929 367.132 75.0491 387.093L64.791 409.148C64.791 409.148 62.4236 410.312 59.5169 410.312Z" fill="#943BFF"/>
<path d="M70.8719 396.649C70.6728 396.649 70.4802 396.545 70.3735 396.361C70.22 396.093 54.6381 369.524 25.6893 365.027C25.3757 364.979 25.1609 364.685 25.2092 364.37C25.2573 364.054 25.5514 363.835 25.8663 363.89C55.3707 368.471 71.2142 395.514 71.3704 395.786C71.5291 396.062 71.4341 396.415 71.1582 396.572L70.8719 396.649Z" fill="white"/>
<path d="M52.5937 376.718C52.3973 376.718 52.2046 376.615 52.098 376.432C47.6684 368.853 50.0796 361.876 50.185 361.582C50.2904 361.283 50.617 361.127 50.919 361.235C51.2183 361.342 51.3745 361.67 51.2677 361.97C51.2443 362.037 48.941 368.752 53.0896 375.852C53.2509 376.125 53.1586 376.478 52.884 376.639L52.5937 376.718Z" fill="white"/>
<path d="M39.8202 386.858C39.664 386.858 39.5092 386.794 39.3959 386.67C39.1812 386.435 39.1981 386.071 39.4324 385.856C48.8448 377.254 56.6967 379.02 57.0247 379.098C57.3332 379.171 57.5232 379.482 57.449 379.79C57.3774 380.098 57.0741 380.293 56.7579 380.218C56.6811 380.201 49.1401 378.544 40.2079 386.708C40.0973 386.809 39.9581 386.858 39.8202 386.858Z" fill="white"/>
<path d="M75.1949 108.02C75.1949 100.111 79.4098 92.8022 86.2508 88.8474L226.859 7.57079C231.012 5.16963 236.051 7.42357 237.377 11.6533C236.616 8.35965 234.564 5.46081 231.592 3.68893L231.091 3.39058C227.593 1.30406 223.596 0.202493 219.523 0.202493V0.205099C218.288 0.187515 217.014 0.491728 215.815 1.18485L75.2078 82.4615C68.367 86.4156 64.152 93.7247 64.152 101.634V406.074C64.152 411.653 70.1861 415.14 75.0127 412.351L75.1949 412.245V108.02Z" fill="#00000C"/>
<path d="M226.664 337.46L86.0556 418.737C81.229 421.527 75.1947 418.039 75.1947 412.459V108.02C75.1947 100.111 79.4098 92.8022 86.2507 88.8473L226.859 7.57079C231.685 4.78078 237.72 8.26847 237.72 13.8487V318.288C237.72 326.197 233.506 333.505 226.664 337.46Z" fill="#00313C"/>
<path d="M75.1949 412.459V108.02C75.1949 104.644 75.9691 101.38 77.381 98.4378L66.5099 91.6967C64.986 94.7306 64.152 98.1219 64.152 101.634V405.439V406.072V408.615C64.152 411.073 65.4442 413.35 67.5536 414.607L73.1584 417.949C75.1012 419.108 77.3199 419.719 79.5802 419.719H82.3481V419.716C78.6043 419.664 75.1949 416.653 75.1949 412.459Z" fill="black"/>
<path d="M221.825 36.8336V292.717C221.825 299.703 218.103 306.156 212.061 309.649L87.8969 381.419C86.9013 381.995 85.8486 382.257 84.8179 382.276C86.2572 385.612 90.4253 387.272 93.8893 385.269L218.054 313.497C224.095 310.006 227.817 303.552 227.817 296.567V43.219C227.817 39.6367 225 37.0433 221.825 36.8336Z" fill="#00000C"/>
<path d="M84.8179 382.276C85.8486 382.257 86.9013 381.995 87.8969 381.419L212.061 309.649C218.103 306.156 221.825 299.703 221.825 292.717V36.8336C221.921 36.8399 221.934 36.8397 221.882 36.8396C221.617 36.8387 219.674 36.838 218.227 37.6746L94.0625 109.446C88.0205 112.939 84.2988 119.392 84.2988 126.377V379.726C84.2988 380.663 84.4926 381.531 84.8348 382.309L84.8179 382.276Z" fill="#8256FF" fill-opacity="0.98"/>
<path d="M84.8348 382.309L84.8179 382.276H84.8202C84.825 382.286 84.8299 382.297 84.8348 382.309Z" fill="#B5A2FF"/>
<path d="M84.8202 382.276C84.487 381.506 84.2988 380.649 84.2988 379.726V126.377C84.2988 119.392 88.0205 112.939 94.0625 109.446L218.227 37.6746C219.595 36.8832 221.409 36.8411 221.825 36.8396V73.9984C216.193 77.3026 210.561 80.6072 204.929 83.9115C187.564 94.1019 170.198 104.292 152.833 114.481C143.621 119.887 134.378 125.245 125.193 130.698C118.816 134.485 115.209 141.067 115.188 148.452C115.18 150.853 115.188 153.255 115.188 155.655C115.188 167.322 115.188 178.99 115.188 190.657C115.188 208.602 115.188 226.549 115.188 244.494C115.188 265.38 115.188 286.265 115.188 307.151C115.188 326.648 115.188 346.148 115.188 365.644L87.8969 381.419C86.902 381.995 85.8501 382.257 84.8202 382.276Z" fill="#B5A2FF"/>
<path d="M221.901 36.8396C221.897 36.8396 221.89 36.8396 221.882 36.8396C221.874 36.8395 221.863 36.8395 221.851 36.8395C221.843 36.8395 221.834 36.8395 221.825 36.8396V36.8336C221.885 36.8375 221.913 36.8394 221.913 36.8394C221.913 36.8394 221.909 36.8396 221.901 36.8396Z" fill="#B5A2FF"/>
<path d="M136.779 71.9429C136.779 73.3708 135.779 75.1063 134.543 75.8202C133.308 76.5342 132.308 75.9551 132.308 74.5278C132.308 73.0999 133.308 71.3645 134.543 70.6505C135.779 69.9372 136.779 70.5157 136.779 71.9429Z" fill="black"/>
<path d="M145.097 67.1354C145.097 68.5626 144.096 70.2987 142.861 71.012C141.626 71.726 140.625 71.1475 140.625 69.7196C140.625 68.2923 141.626 66.5563 142.861 65.8422C144.096 65.129 145.097 65.7075 145.097 67.1354Z" fill="black"/>
<path d="M178.67 50.313L151.627 65.946C150.558 66.5642 149.69 65.9076 149.69 64.4802C149.69 63.0523 150.558 61.3945 151.627 60.7762L178.67 45.1439C179.74 44.5257 180.607 45.1817 180.607 46.6089C180.607 48.0363 179.74 49.6948 178.67 50.313Z" fill="black"/>
<path d="M174.096 345.958C173.335 345.958 172.495 346.2 171.616 346.708L158.681 354.186C155.232 356.179 152.438 361.526 152.438 366.129C152.438 369.556 153.988 371.604 156.203 371.604C156.962 371.604 157.8 371.363 158.681 370.854L171.616 363.378C175.065 361.383 177.86 356.037 177.86 351.433C177.86 348.007 176.31 345.958 174.096 345.958ZM174.096 347.066C175.711 347.066 176.754 348.78 176.754 351.433C176.754 355.605 174.149 360.636 171.063 362.419L158.128 369.896C157.438 370.295 156.789 370.498 156.203 370.498C154.586 370.498 153.543 368.782 153.543 366.129C153.543 361.957 156.149 356.927 159.233 355.144L172.168 347.667C172.859 347.267 173.507 347.066 174.096 347.066Z" fill="black"/>
<path d="M102.616 144.311V431.131C102.616 436.326 104.522 439.816 107.437 440.962L107.518 440.989L107.532 441.004L119.912 447.793L119.844 436.763L118.468 139.348L105.394 132.653C103.665 136.362 102.616 140.479 102.616 144.311Z" fill="#E2EBE8"/>
<path d="M107.852 440.418L119.239 446.664L119.178 436.767L117.804 139.757L105.713 133.565C104.142 137.14 103.282 140.93 103.282 144.311V431.131C103.282 435.815 104.927 439.259 107.681 440.342L107.851 440.422L107.852 440.418ZM120.584 448.924L107.185 441.573C103.864 440.201 101.95 436.322 101.95 431.131V144.311C101.95 140.541 102.958 136.299 104.79 132.371L105.083 131.744L119.133 138.94L119.135 139.345L120.51 436.759L120.584 448.924Z" fill="#E2EBE8"/>
<path d="M105.394 132.653L118.468 139.348L258.395 57.8481L267.737 52.4072L254.826 45.1256L254.458 44.9073V44.8937C252.401 43.6527 249.705 43.7348 246.736 45.4526L114.287 122.017C110.719 124.076 107.532 128.044 105.394 132.653Z" fill="#DAE5E2"/>
<path d="M106.275 132.354L118.448 138.589L266.395 52.4165L254.119 45.4806L254.019 45.409C252.116 44.316 249.655 44.5361 247.069 46.0304L114.62 122.595C111.439 124.43 108.421 127.967 106.275 132.354ZM118.468 140.015L118.165 139.943L105.091 133.247C104.772 133.083 104.64 132.697 104.79 132.372C107.062 127.474 110.403 123.489 113.954 121.439L246.403 44.8748C249.468 43.1023 252.452 42.903 254.802 44.3225L254.899 44.3941L255.165 44.5524L268.064 51.8263C268.271 51.9435 268.402 52.1637 268.403 52.4027C268.405 52.6418 268.278 52.8639 268.072 52.9839L118.803 139.924L118.468 140.015Z" fill="#DAE5E2"/>
<path d="M115.444 151.524V437.048C115.444 441.548 116.874 444.779 119.163 446.292L119.912 446.702C121.9 447.642 124.393 447.438 127.103 445.871L191.128 408.863L259.551 367.63C265.993 363.907 271.224 355.589 271.224 346.997V61.4883C271.224 57.1386 269.889 53.989 267.737 52.4074C267.371 52.1345 266.975 51.9025 266.552 51.7389C264.604 50.9071 262.18 51.1526 259.551 52.6659L127.103 130.521C123.671 132.498 120.593 134.971 118.468 139.348C116.589 143.179 115.444 147.502 115.444 151.524Z" fill="#FAFBFA"/>
<path d="M259.553 367.63C232.298 383.907 161.397 426.274 126.298 447.438C121.703 450.209 115.854 446.893 115.854 441.521V147.925C115.854 141.128 119.452 134.84 125.309 131.403L260.19 52.2608C264.786 49.5638 270.57 52.8822 270.57 58.2167V348.199C270.57 356.168 266.387 363.547 259.553 367.63Z" fill="#FAFBFA"/>
<path d="M259.216 367.053C237.82 379.833 216.428 392.619 195.043 405.417C182.382 412.994 169.724 420.576 157.07 428.166C151.288 431.633 145.509 435.102 139.732 438.574C137.203 440.094 134.678 441.613 132.15 443.134C129.82 444.538 127.334 446.536 124.759 447.432C120.483 448.919 116.632 445.496 116.52 441.268C116.502 440.587 116.52 439.902 116.52 439.22C116.52 435.918 116.52 432.616 116.52 429.313C116.52 416.456 116.52 403.599 116.52 390.741C116.52 372.332 116.52 353.923 116.52 335.515C116.52 314.83 116.52 294.145 116.52 273.462C116.52 253.982 116.52 234.504 116.52 215.025C116.52 200.03 116.52 185.035 116.52 170.041C116.52 162.871 116.503 155.7 116.52 148.531C116.536 141.477 119.94 135.357 126.029 131.754C129.121 129.924 132.226 128.118 135.324 126.3C149.849 117.777 164.375 109.255 178.9 100.732C196.109 90.6338 213.32 80.5354 230.53 70.4369C240.324 64.6907 250.093 58.9007 259.911 53.1975C262.952 51.4315 266.779 51.604 268.894 54.7916C269.752 56.0852 269.9 57.5236 269.904 59.0056C269.913 61.5637 269.904 64.1226 269.904 66.6806C269.904 78.4963 269.904 90.3119 269.904 102.127C269.904 120.018 269.904 137.908 269.904 155.799C269.904 176.335 269.904 196.873 269.904 217.41C269.904 237.224 269.904 257.039 269.904 276.853C269.904 292.381 269.904 307.909 269.904 323.438C269.904 331.319 269.904 339.198 269.904 347.079C269.904 355.278 266.326 362.68 259.216 367.053C258.488 367.503 259.156 368.657 259.888 368.206C267.304 363.645 271.236 355.871 271.236 347.264C271.236 344.535 271.236 341.802 271.236 339.071C271.236 326.837 271.236 314.604 271.236 302.371C271.236 284.052 271.236 265.732 271.236 247.413C271.236 226.439 271.236 205.463 271.236 184.489C271.236 164.697 271.236 144.904 271.236 125.113C271.236 109.901 271.236 94.6895 271.236 79.4781C271.236 72.5065 271.311 65.5302 271.236 58.5594C271.17 52.2157 264.786 48.8406 259.406 51.9467C256.16 53.8216 252.938 55.7426 249.704 57.6397C234.779 66.3973 219.854 75.1545 204.929 83.9115C187.564 94.1019 170.198 104.292 152.833 114.481C143.621 119.887 134.378 125.245 125.193 130.698C118.816 134.485 115.209 141.067 115.188 148.452C115.18 150.853 115.188 153.255 115.188 155.655C115.188 167.322 115.188 178.99 115.188 190.657C115.188 208.602 115.188 226.549 115.188 244.494C115.188 265.38 115.188 286.265 115.188 307.151C115.188 327.23 115.188 347.307 115.188 367.386C115.188 383.35 115.188 399.314 115.188 415.278C115.188 423.56 115.188 431.842 115.188 440.125C115.188 440.584 115.173 441.045 115.188 441.504C115.345 446.527 120.172 450.375 125.113 448.719C127.628 447.876 130.003 445.984 132.269 444.621C134.846 443.069 137.422 441.519 139.999 439.97C145.759 436.508 151.523 433.048 157.286 429.59C182.484 414.475 207.702 399.391 232.926 384.316C241.913 378.944 250.901 373.574 259.888 368.206C260.624 367.767 259.955 366.612 259.216 367.053Z" fill="#E7EEEC"/>
<path d="M125.309 131.403L260.19 52.2608C264.786 49.5639 270.57 52.8822 270.57 58.2167V70.9541L270.53 70.9567L115.854 160.366V147.925C115.854 141.128 119.452 134.84 125.309 131.403Z" fill="#E7EEEC"/>
<path d="M228.238 166.248C228.238 188.613 212.557 215.806 193.212 226.989C173.868 238.17 158.185 229.106 158.185 206.741C158.185 184.378 173.868 157.184 193.212 146.002C212.557 134.82 228.238 143.885 228.238 166.248Z" fill="#8256FF" fill-opacity="0.98"/>
<path d="M177.568 231.779C166.075 231.779 158.185 222.606 158.185 206.741C158.185 184.379 173.868 157.184 193.212 146.002C198.834 142.753 204.148 141.212 208.856 141.212C220.349 141.212 228.238 150.384 228.238 166.248C228.238 188.613 212.557 215.806 193.212 226.989C187.592 230.238 182.276 231.779 177.568 231.779Z" fill="#B5A2FF"/>
<path d="M186.928 186.651C186.061 186.651 185.357 185.946 185.357 185.076V174.706C185.357 170.123 188.462 164.739 192.425 162.447C194.612 161.183 196.748 161.027 198.441 162.007C200.135 162.986 201.068 164.916 201.068 167.442V177.813C201.068 178.682 200.363 179.386 199.495 179.386C198.628 179.386 197.923 178.682 197.923 177.813V167.442C197.923 166.108 197.538 165.12 196.869 164.733C196.199 164.347 195.153 164.507 193.999 165.174C191.019 166.896 188.502 171.261 188.502 174.706V185.076C188.502 185.946 187.798 186.651 186.928 186.651Z" fill="#00000C"/>
<path d="M205.909 171.127C205.298 170.832 204.527 170.889 203.689 171.375L182.736 183.485C181.896 183.97 181.126 184.804 180.516 185.805C179.691 187.156 179.159 188.81 179.159 190.326V208.486C179.159 209.8 179.558 210.761 180.204 211.252C180.317 211.338 180.44 211.405 180.569 211.462C181.17 211.729 181.922 211.664 182.736 211.193L203.689 199.082C205.664 197.94 207.264 194.877 207.264 192.24V174.08C207.264 172.565 206.734 171.524 205.909 171.127Z" fill="#8256FF" fill-opacity="0.98"/>
<path d="M195.594 190.051L197.612 195.864L190.514 199.968L192.292 192.787L192.541 191.77C191.343 191.804 190.514 190.876 190.514 189.243C190.514 188.616 190.634 187.957 190.846 187.306C191.416 185.582 192.645 183.909 194.064 183.087C196.024 181.956 197.612 182.871 197.612 185.139C197.612 186.773 196.78 188.664 195.582 190.017L195.594 190.051Z" fill="#00313C"/>
<path d="M192.292 192.787L192.541 191.769C191.343 191.804 190.514 190.876 190.514 189.243C190.514 188.616 190.634 187.957 190.846 187.305L195.594 190.051L197.612 195.864L192.292 192.787Z" fill="#00000C"/>
<path d="M244.88 253.642L141.545 313.373C137.27 315.844 133.804 313.221 133.804 307.515V291.842C133.804 286.136 137.27 279.505 141.545 277.035L244.88 217.303C249.155 214.832 252.619 217.455 252.619 223.161V238.835C252.619 244.542 249.155 251.171 244.88 253.642Z" fill="#8256FF" fill-opacity="0.98"/>
<path d="M160.14 292.213H158.141V275.625H160.14V292.213Z" fill="#FAFBFA"/>
<path d="M152.466 288.932L151.467 287.199L165.817 278.905L166.816 280.638L152.466 288.932Z" fill="#FAFBFA"/>
<path d="M163.715 287.717L153.567 281.852L154.566 280.119L164.715 285.984L163.715 287.717Z" fill="#FAFBFA"/>
<path d="M154.933 293.216L153.202 292.216L163.349 274.62L165.08 275.621L154.933 293.216Z" fill="#FAFBFA"/>
<path d="M194.212 273.634H192.213V257.044H194.212V273.634Z" fill="#FAFBFA"/>
<path d="M186.538 270.352L185.538 268.619L199.887 260.325L200.886 262.058L186.538 270.352Z" fill="#FAFBFA"/>
<path d="M197.786 269.137L187.64 263.272L188.639 261.54L198.785 267.405L197.786 269.137Z" fill="#FAFBFA"/>
<path d="M189.004 274.636L187.273 273.635L197.421 256.041L199.15 257.041L189.004 274.636Z" fill="#FAFBFA"/>
<path d="M228.283 255.054H226.285V238.465H228.283V255.054Z" fill="#FAFBFA"/>
<path d="M220.609 251.773L219.61 250.04L233.959 241.746L234.958 243.477L220.609 251.773Z" fill="#FAFBFA"/>
<path d="M231.857 250.558L221.711 244.693L222.711 242.96L232.857 248.825L231.857 250.558Z" fill="#FAFBFA"/>
<path d="M223.076 256.057L221.346 255.056L231.492 237.461L233.223 238.461L223.076 256.057Z" fill="#FAFBFA"/>
<path d="M247.952 272.568C247.011 272.568 245.971 272.867 244.88 273.498L141.545 333.229C137.27 335.7 133.804 342.329 133.804 348.037V363.71C133.804 367.959 135.727 370.498 138.472 370.498C139.414 370.498 140.453 370.199 141.545 369.568L244.88 309.837C249.155 307.366 252.619 300.735 252.619 295.031V279.357C252.619 275.107 250.699 272.568 247.952 272.568ZM247.953 275.236C249.335 275.236 249.954 277.306 249.954 279.357V295.031C249.954 299.796 247.02 305.518 243.548 307.526L140.212 367.257C139.564 367.632 138.962 367.83 138.472 367.83C137.089 367.83 136.469 365.761 136.469 363.71V348.037C136.469 343.27 139.403 337.548 142.877 335.54L246.213 275.809C246.86 275.435 247.461 275.236 247.953 275.236Z" fill="#8256FF" fill-opacity="0.98"/>
<path fill-rule="evenodd" clip-rule="evenodd" d="M171.915 329.873C169.611 331.205 168.07 333.815 168.07 336.448C168.07 339.034 169.557 339.878 171.995 338.469C173.375 337.671 174.474 336.494 175.237 335.077L173.831 334.295C173.348 335.085 172.799 335.697 172.223 336.03C171.526 336.432 171.017 336.277 170.803 335.596L175.706 332.762C175.867 329.571 174.474 328.394 171.915 329.873ZM170.749 334.094C170.883 333.164 171.312 332.344 171.942 331.98C172.598 331.6 173.054 331.925 173.04 332.769L170.749 334.094Z" fill="#8256FF" fill-opacity="0.98"/>
<path fill-rule="evenodd" clip-rule="evenodd" d="M184.495 316.321C183.477 316.91 182.687 317.862 182.177 319.086V317.785L179.471 319.349V327.774L182.177 326.21V322.044C182.177 321.084 182.633 320.154 183.37 319.713C183.999 319.349 184.415 319.636 184.415 320.472V324.917L187.121 323.353V318.009C187.121 316.058 186.049 315.423 184.495 316.321Z" fill="#8256FF" fill-opacity="0.98"/>
<path fill-rule="evenodd" clip-rule="evenodd" d="M195.734 309.02C195.412 309.345 195.118 309.624 194.903 309.748C194.528 309.964 194.287 309.84 194.287 309.298V306.418L196.082 305.38V303.382L194.287 304.42V302.081L191.594 303.638V305.976L190.589 306.557V308.555L191.594 307.974V311.335C191.594 313.085 192.639 313.519 194.193 312.605C194.93 312.179 195.707 311.529 196.216 310.894L195.734 309.02Z" fill="#8256FF" fill-opacity="0.98"/>
<path fill-rule="evenodd" clip-rule="evenodd" d="M203.196 293.71C200.891 295.042 199.351 297.652 199.351 300.285C199.351 302.871 200.838 303.715 203.276 302.306C204.656 301.508 205.754 300.331 206.518 298.914L205.111 298.132C204.629 298.922 204.08 299.534 203.504 299.867C202.807 300.269 202.298 300.114 202.084 299.433L206.987 296.599C207.148 293.408 205.754 292.231 203.196 293.71ZM202.03 297.931C202.164 297.001 202.593 296.181 203.223 295.817C203.879 295.437 204.334 295.762 204.321 296.606L202.03 297.931Z" fill="#8256FF" fill-opacity="0.98"/>
<path fill-rule="evenodd" clip-rule="evenodd" d="M213.458 281.622L210.752 283.186V291.611L213.458 290.047V286.02C213.458 284.797 214.356 283.597 215.749 282.992V280.174C214.758 280.747 213.967 281.73 213.458 282.954V281.622Z" fill="#8256FF" fill-opacity="0.98"/>
<path d="M400.045 97.0868C400.045 99.0163 401.424 101.363 403.125 102.327C404.824 103.292 406.204 102.51 406.204 100.58C406.204 98.6508 404.824 96.3049 403.125 95.3402C401.424 94.3754 400.045 95.1572 400.045 97.0868Z" fill="#00313C"/>
<path d="M358.771 109.515C356.411 109.515 353.806 108.745 351.114 107.218L341.344 101.675C341.024 101.494 340.911 101.086 341.093 100.766C341.274 100.444 341.684 100.333 342.001 100.515L351.771 106.057C355.984 108.447 359.898 108.831 362.792 107.143C365.624 105.49 367.184 102.005 367.184 97.3297C367.184 92.1593 368.979 88.2645 372.239 86.363C375.561 84.4249 379.946 84.808 384.586 87.441L400.375 96.3975C400.695 96.5793 400.808 96.9864 400.627 97.3069C400.444 97.6267 400.034 97.7376 399.719 97.5584L383.93 88.6019C379.717 86.2125 375.804 85.8268 372.91 87.5159C370.077 89.1686 368.517 92.6538 368.517 97.3297C368.517 102.499 366.722 106.394 363.463 108.295C362.067 109.109 360.484 109.515 358.771 109.515Z" fill="#00313C"/>
<path d="M337.311 98.6833C337.311 100.244 338.427 102.141 339.802 102.922C341.177 103.701 342.292 103.069 342.292 101.509C342.292 99.9485 341.177 98.0508 339.802 97.2705C338.427 96.4907 337.311 97.1225 337.311 98.6833Z" fill="#00313C"/>
<path d="M400.045 213.698C400.045 215.628 401.424 217.974 403.125 218.939C404.824 219.905 406.204 219.122 406.204 217.193C406.204 215.263 404.824 212.917 403.125 211.952C401.424 210.988 400.045 211.769 400.045 213.698Z" fill="#00313C"/>
<path d="M400.165 215.158L399.837 215.071L384.048 206.115C374.814 200.876 367.303 188.09 367.303 177.61C367.303 167.56 360.094 155.295 351.232 150.268L341.344 144.658C341.024 144.476 340.911 144.069 341.093 143.749C341.274 143.426 341.684 143.315 342.001 143.497L351.888 149.107C361.123 154.345 368.635 167.132 368.635 177.61C368.635 187.662 375.843 199.928 384.703 204.955L400.492 213.911C400.812 214.093 400.925 214.5 400.743 214.82C400.622 215.037 400.396 215.158 400.165 215.158Z" fill="#00313C"/>
<path d="M337.311 141.421C337.311 142.982 338.427 144.879 339.802 145.66C341.177 146.44 342.292 145.808 342.292 144.247C342.292 142.687 341.177 140.789 339.802 140.008C338.427 139.229 337.311 139.861 337.311 141.421Z" fill="#00313C"/>
<path d="M494.925 84.5114L429.659 47.5013C427.789 46.4213 426.109 46.5027 424.918 47.493L419.278 51.3969L423.123 56.1574V125.032C423.123 129.85 426.05 135.445 429.659 137.532L493.305 173.605L493.605 178.736L499.546 174.658C500.728 173.764 501.46 172.006 501.46 169.596V97.0124C501.46 92.1945 498.534 86.5982 494.925 84.5114Z" fill="#8256FF" fill-opacity="0.98"/>
<path d="M493.605 178.736L493.305 173.605L429.659 137.532C426.05 135.445 423.123 129.85 423.123 125.032V56.1574L419.278 51.3969L424.918 47.493C425.524 46.9891 426.257 46.7205 427.076 46.7205C427.868 46.7205 428.741 46.9709 429.659 47.5013L494.925 84.5114C498.534 86.5982 501.46 92.1945 501.46 97.0124V169.596C501.46 172.006 500.728 173.764 499.546 174.658L493.605 178.736Z" fill="#7D2EF0"/>
<path d="M489.377 178.366L424.11 141.356C420.502 139.27 417.575 133.672 417.575 128.856V56.2709C417.575 51.4536 420.502 49.2387 424.11 51.3252L489.377 88.3354C492.985 90.4213 495.911 96.0177 495.911 100.836V173.42C495.911 178.237 492.985 180.452 489.377 178.366Z" fill="#8256FF" fill-opacity="0.98"/>
<path d="M475.662 115.557C475.367 115.557 475.098 115.361 475.018 115.062C473.655 109.98 471.446 104.942 468.628 100.494C468.429 100.182 468.522 99.7699 468.833 99.5725C469.142 99.3745 469.554 99.4665 469.752 99.7783C472.642 104.34 474.909 109.505 476.306 114.717C476.402 115.073 476.191 115.438 475.835 115.534L475.662 115.557Z" fill="white"/>
<path d="M477.161 129.115L477.116 129.113C476.749 129.089 476.472 128.771 476.495 128.404C476.541 127.686 476.567 126.945 476.567 126.185C476.567 123.992 476.364 121.701 475.966 119.375C475.904 119.012 476.147 118.667 476.509 118.605C476.876 118.545 477.217 118.786 477.28 119.149C477.691 121.55 477.899 123.917 477.899 126.185C477.899 126.975 477.874 127.745 477.825 128.491C477.802 128.844 477.509 129.115 477.161 129.115Z" fill="white"/>
<path d="M436.401 106.976C436.06 106.976 435.77 106.714 435.739 106.367C435.638 105.21 435.587 104.056 435.587 102.937C435.587 96.4658 437.33 91.1196 440.494 87.8833C440.75 87.6209 441.171 87.6157 441.436 87.8729C441.698 88.1309 441.704 88.5531 441.445 88.8163C438.527 91.8023 436.92 96.817 436.92 102.937C436.92 104.017 436.969 105.132 437.066 106.251C437.1 106.618 436.828 106.942 436.461 106.973L436.401 106.976Z" fill="white"/>
<path d="M465.87 96.1846C465.677 96.1846 465.485 96.1012 465.355 95.9396C462.558 92.5144 459.55 89.8755 456.416 88.0964C451.989 85.5852 447.835 85.1026 444.409 86.6972C444.078 86.8529 443.678 86.709 443.524 86.3734C443.369 86.0392 443.513 85.6425 443.846 85.4868C447.681 83.7045 452.253 84.2028 457.072 86.9356C460.351 88.7967 463.484 91.5425 466.385 95.0954C466.618 95.3808 466.577 95.8009 466.292 96.0341C466.168 96.1351 466.018 96.1846 465.87 96.1846Z" fill="white"/>
<path d="M440.996 107.487C440.64 107.487 440.344 107.207 440.33 106.848C440.313 106.434 440.305 106.022 440.305 105.613C440.305 100.874 441.464 97.0072 443.657 94.4308C443.897 94.1494 444.318 94.1162 444.597 94.3559C444.876 94.5943 444.91 95.0158 444.671 95.296C442.686 97.628 441.637 101.196 441.637 105.613C441.637 106.004 441.645 106.398 441.662 106.792C441.676 107.16 441.391 107.471 441.023 107.487L440.996 107.487Z" fill="white"/>
<path d="M446.222 93.748C445.998 93.748 445.78 93.6355 445.656 93.4302C445.463 93.1162 445.56 92.7058 445.875 92.5129C447.543 91.4876 449.452 91.0714 451.531 91.2784C451.898 91.315 452.164 91.6413 452.129 92.0081C452.093 92.3748 451.763 92.6361 451.401 92.6062C449.604 92.4277 447.987 92.7793 446.571 93.6497L446.222 93.748Z" fill="white"/>
<path d="M475.662 137.698C475.399 137.698 475.149 137.54 475.044 137.28L474.263 135.345C472.677 131.412 471.843 127.335 471.85 123.558C471.85 112.244 464.926 99.1504 456.416 94.3227C456.096 94.1411 455.983 93.7339 456.164 93.4133C456.346 93.0915 456.756 92.9801 457.072 93.1619C465.956 98.2014 473.182 111.815 473.182 123.509C473.175 127.168 473.976 131.07 475.499 134.846L476.28 136.78C476.419 137.122 476.254 137.511 475.913 137.648L475.662 137.698Z" fill="white"/>
<path d="M445.071 130.03C444.799 130.03 444.545 129.863 444.445 129.592C441.084 120.407 440.312 110.207 440.304 110.105C440.278 109.737 440.554 109.418 440.921 109.392C441.241 109.363 441.608 109.64 441.634 110.008C441.641 110.108 442.402 120.128 445.697 129.134C445.824 129.48 445.647 129.863 445.3 129.99L445.071 130.03Z" fill="white"/>
<path d="M471.742 142.196C471.471 142.196 471.217 142.029 471.117 141.761L469.34 136.969C467.466 131.911 466.474 126.839 466.474 122.303V117.058C466.474 110.833 462.009 103.237 456.521 100.124C453.958 98.6704 451.592 98.4273 449.857 99.4416C448.158 100.432 447.224 102.541 447.224 105.382V110.013C447.224 116.807 448.766 124.417 451.682 132.017L453.882 137.758C454.014 138.102 453.842 138.487 453.498 138.619C453.157 138.749 452.769 138.579 452.638 138.235L450.437 132.495C447.464 124.744 445.892 116.97 445.892 110.013V105.382C445.892 102.047 447.062 99.5277 449.186 98.2885C451.351 97.0255 454.19 97.2678 457.177 98.9635C463.039 102.288 467.807 110.405 467.807 117.058V122.303C467.807 126.682 468.769 131.593 470.59 136.505L472.367 141.297C472.493 141.642 472.317 142.027 471.974 142.155L471.742 142.196Z" fill="white"/>
<path d="M465.871 144.108C465.583 144.108 465.316 143.92 465.231 143.63L464.302 140.492C462.538 134.532 461.644 128.796 461.644 123.443V115.327C461.644 111.982 459.243 107.899 456.292 106.226C454.973 105.477 453.767 105.342 452.905 105.846C452.063 106.338 451.599 107.412 451.599 108.872C451.599 117.881 454.339 128.276 459.316 138.142L461.188 141.855C461.353 142.184 461.221 142.584 460.894 142.751C460.566 142.915 460.163 142.784 459.998 142.456L458.126 138.745C453.057 128.695 450.267 118.086 450.267 108.872C450.267 106.918 450.965 105.434 452.235 104.693C453.523 103.941 455.201 104.073 456.948 105.065C460.271 106.949 462.976 111.554 462.976 115.327V123.443C462.976 128.668 463.852 134.275 465.58 140.112L466.509 143.251C466.613 143.604 466.413 143.975 466.06 144.08L465.871 144.108Z" fill="white"/>
<path d="M458.399 130.03C458.093 130.03 457.817 129.816 457.749 129.503L457.136 126.649C456.548 123.912 456.251 121.104 456.251 118.304V110.785C456.251 110.416 456.548 110.118 456.917 110.118C457.285 110.118 457.584 110.416 457.584 110.785V118.304C457.584 121.01 457.871 123.724 458.439 126.369L459.052 129.223C459.129 129.583 458.9 129.938 458.542 130.015L458.399 130.03Z" fill="white"/>
<path d="M437.847 115.557C437.509 115.557 437.221 115.3 437.186 114.955L436.799 111.053C436.763 110.687 437.029 110.36 437.394 110.324C437.791 110.3 438.087 110.554 438.123 110.922L438.511 114.824C438.548 115.19 438.28 115.517 437.915 115.553L437.847 115.557Z" fill="white"/>
<path d="M494.925 208.121L429.659 171.111C427.789 170.03 426.109 170.111 424.918 171.101L419.278 175.006L423.123 179.766V248.642C423.123 253.458 426.05 259.055 429.659 261.141L493.305 297.215L493.605 302.346L499.546 298.267C500.728 297.372 501.46 295.615 501.46 293.206V220.621C501.46 215.804 498.534 210.207 494.925 208.121Z" fill="#8256FF" fill-opacity="0.98"/>
<path d="M493.605 302.346L493.305 297.215L429.659 261.141C426.05 259.055 423.123 253.458 423.123 248.642V179.766L419.278 175.006L424.918 171.101C425.524 170.598 426.257 170.33 427.076 170.33C427.868 170.33 428.741 170.58 429.659 171.111L494.925 208.121C498.534 210.207 501.46 215.804 501.46 220.621V293.206C501.46 295.615 500.728 297.372 499.546 298.267L493.605 302.346Z" fill="#7D2EF0"/>
<path d="M489.377 301.975L424.11 264.965C420.502 262.878 417.575 257.282 417.575 252.464V179.88C417.575 175.062 420.502 172.848 424.11 174.934L489.377 211.944C492.985 214.031 495.911 219.627 495.911 224.445V297.029C495.911 301.847 492.985 304.061 489.377 301.975Z" fill="#8256FF" fill-opacity="0.98"/>
<path d="M432.104 200.132C431.735 200.132 431.438 199.834 431.438 199.465V194.966C431.438 194.056 431.91 193.237 432.702 192.775C433.511 192.305 434.483 192.297 435.297 192.759L440.007 195.432C440.328 195.615 440.442 196.021 440.259 196.342C440.077 196.663 439.666 196.772 439.352 196.592L434.641 193.92C434.241 193.696 433.771 193.697 433.374 193.928C432.99 194.152 432.77 194.53 432.77 194.966V199.465C432.77 199.834 432.472 200.132 432.104 200.132Z" fill="white"/>
<path d="M439.68 262.004L439.352 261.918L434.95 259.422C432.782 258.191 431.438 255.899 431.438 253.437V249.288C431.438 248.919 431.735 248.62 432.104 248.62C432.472 248.62 432.77 248.919 432.77 249.288V253.437C432.77 255.419 433.856 257.267 435.607 258.261L440.007 260.757C440.328 260.938 440.442 261.347 440.259 261.667C440.137 261.883 439.911 262.004 439.68 262.004Z" fill="white"/>
<path d="M479.473 284.292C479.032 284.292 478.591 284.179 478.19 283.949L473.478 281.277C473.158 281.096 473.045 280.689 473.227 280.369C473.409 280.047 473.816 279.938 474.135 280.116L478.845 282.789C479.247 283.015 479.72 283.013 480.113 282.781C480.496 282.558 480.716 282.179 480.716 281.744V277.245C480.716 276.876 481.015 276.578 481.383 276.578C481.75 276.578 482.049 276.876 482.049 277.245V281.744C482.049 282.653 481.577 283.472 480.784 283.933C480.374 284.172 479.923 284.292 479.473 284.292Z" fill="white"/>
<path d="M481.383 228.088C481.015 228.088 480.716 227.79 480.716 227.421V223.274C480.716 221.291 479.63 219.442 477.879 218.449L473.478 215.952C473.158 215.77 473.045 215.364 473.227 215.043C473.409 214.722 473.816 214.61 474.135 214.791L478.535 217.289C480.703 218.517 482.049 220.811 482.049 223.274V227.421C482.049 227.79 481.75 228.088 481.383 228.088Z" fill="white"/>
<path d="M438.013 222.576C438.111 230.462 439.386 238.057 441.227 244.994C446.302 264.115 466.27 275.875 471.758 262.921C473.944 257.761 475.475 251.171 475.475 242.837C475.475 231.098 467.087 216.822 456.739 210.953C446.192 204.971 437.861 210.525 438.013 222.576Z" fill="white"/>
<path d="M456.075 233.262V245.831L450.621 241.743L456.075 233.262Z" fill="#DAE5E2"/>
<path d="M445.93 225.756C445.93 226.882 446.735 228.251 447.728 228.814C448.719 229.377 449.526 228.921 449.526 227.795C449.526 226.669 448.719 225.3 447.728 224.737C446.735 224.173 445.93 224.63 445.93 225.756Z" fill="#DAE5E2"/>
<path d="M462.626 235.327C462.626 236.453 463.429 237.822 464.423 238.385C465.416 238.948 466.22 238.492 466.22 237.366C466.22 236.24 465.416 234.87 464.423 234.307C463.429 233.745 462.626 234.2 462.626 235.327Z" fill="#DAE5E2"/>
<path d="M454.277 251.983L460.37 250.949C460.37 250.949 459.072 257.464 454.277 251.983Z" fill="#DAE5E2"/>
<path d="M356.054 263.712C356.054 263.712 365.766 263.056 371.276 276.572C374.702 284.974 378.872 297.958 381.537 306.581C383.195 311.938 381.484 317.765 377.193 321.37L360.258 335.597L354.196 324.564C354.196 324.564 360.729 315.838 365.766 311.324L354.196 276.572L356.054 263.712Z" fill="#FFDCBF" fill-opacity="0.98"/>
<path d="M360.532 304.982C360.532 304.982 375.96 307.023 379.817 295.108C379.817 295.108 373.205 277.675 370.174 271.884C367.144 266.091 360.941 261.883 356.054 263.712C351.165 265.538 360.532 304.982 360.532 304.982Z" fill="#8256FF" fill-opacity="0.98"/>
<path d="M363.099 305.114C362.979 305.114 362.861 305.114 362.748 305.113C363.216 299.046 363.644 292.237 363.644 287.58C363.644 286.523 363.648 285.485 363.648 284.47C363.648 275.574 363.277 268.298 356.054 263.712C356.841 263.417 357.662 263.28 358.499 263.28C362.856 263.28 367.632 267.023 370.174 271.884C373.205 277.675 379.817 295.108 379.817 295.108C379.517 296.037 379.145 296.881 378.717 297.648C375.223 303.9 367.908 305.017 363.697 305.109C363.489 305.113 363.291 305.114 363.099 305.114Z" fill="#C190FF" fill-opacity="0.67"/>
<path d="M350.237 461.422C350.237 461.422 342.901 455.133 340.056 454.839C337.209 454.545 332.273 459.431 336.443 467.909C337.602 470.266 342.314 472.821 345.257 477.341C348.202 481.863 350.851 485.261 355.367 484.642C359.881 484.024 360.471 481.469 360.176 478.521C359.881 475.573 358.556 470.512 358.556 470.512L350.237 461.422Z" fill="#00000C"/>
<path d="M355.607 483.289C350.954 483.925 348.222 480.423 345.187 475.764C342.153 471.106 337.295 468.472 336.102 466.04C335.575 464.971 335.194 463.96 334.928 463.005C335.098 464.47 335.554 466.101 336.443 467.909C337.602 470.266 342.314 472.821 345.257 477.341C348.202 481.863 350.851 485.261 355.367 484.642C358.824 484.169 359.973 482.555 360.191 480.503C359.594 481.885 358.282 482.923 355.607 483.289Z" fill="black"/>
<path d="M346.326 469.503L345.992 469.418C345.645 469.232 345.513 468.802 345.698 468.455C345.793 468.277 348.082 464.068 352.596 463.042C352.986 462.953 353.36 463.196 353.447 463.58C353.535 463.964 353.294 464.346 352.91 464.432C349.044 465.311 346.975 469.088 346.954 469.127C346.827 469.366 346.581 469.503 346.326 469.503Z" fill="#E7EEEC"/>
<path d="M343.586 466.976L343.252 466.892C342.905 466.707 342.775 466.276 342.959 465.929C343.055 465.75 345.341 461.541 349.856 460.517C350.245 460.426 350.621 460.67 350.709 461.053C350.795 461.437 350.554 461.82 350.17 461.907C346.303 462.785 344.235 466.563 344.215 466.602C344.087 466.84 343.841 466.976 343.586 466.976Z" fill="#E7EEEC"/>
<path d="M340.456 464.45L340.122 464.366C339.777 464.18 339.645 463.749 339.83 463.402C339.925 463.224 342.213 459.016 346.725 457.99C347.112 457.899 347.491 458.143 347.577 458.527C347.664 458.912 347.424 459.293 347.04 459.38C343.173 460.259 341.107 464.036 341.085 464.075C340.957 464.314 340.712 464.45 340.456 464.45Z" fill="#E7EEEC"/>
<path d="M311.22 482.036C311.22 482.036 301.394 478.845 298.463 479.725C295.53 480.606 292.662 487.462 300.26 494.118C302.374 495.97 308.076 496.554 312.839 499.805C317.602 503.058 321.614 505.322 325.818 502.854C330.022 500.386 329.679 497.547 328.931 494.467C327.978 490.545 327.212 487.695 327.212 487.695L311.22 482.036Z" fill="#00000C"/>
<path d="M325.501 501.418C321.166 503.962 317.032 501.629 312.121 498.276C307.211 494.925 301.334 494.322 299.156 492.414C298.198 491.574 297.407 490.733 296.75 489.899C297.521 491.275 298.641 492.7 300.26 494.118C302.374 495.97 308.076 496.554 312.839 499.805C317.602 503.058 321.614 505.322 325.818 502.854C329.039 500.963 329.508 498.898 328.883 496.782C328.861 498.392 327.99 499.957 325.501 501.418Z" fill="black"/>
<path d="M308.875 491.119L308.804 491.115C308.414 491.076 308.129 490.729 308.165 490.338C308.186 490.124 308.714 485.049 312.733 482.191C313.051 481.963 313.495 482.037 313.726 482.359C313.953 482.68 313.877 483.125 313.558 483.353C310.078 485.826 309.587 490.429 309.583 490.474C309.547 490.843 309.238 491.119 308.875 491.119Z" fill="#E7EEEC"/>
<path d="M312.933 492.448L312.862 492.444C312.47 492.406 312.185 492.059 312.223 491.667C312.243 491.452 312.773 486.377 316.79 483.521C317.109 483.293 317.554 483.367 317.783 483.689C318.011 484.011 317.935 484.455 317.615 484.683C314.137 487.156 313.644 491.758 313.64 491.804C313.604 492.173 313.295 492.448 312.933 492.448Z" fill="#E7EEEC"/>
<path d="M305.133 489.751L305.063 489.747C304.672 489.709 304.386 489.362 304.422 488.971C304.443 488.756 304.971 483.681 308.99 480.823C309.308 480.595 309.753 480.671 309.982 480.991C310.21 481.313 310.134 481.758 309.815 481.985C306.337 484.459 305.845 489.061 305.841 489.107C305.804 489.475 305.494 489.751 305.133 489.751Z" fill="#E7EEEC"/>
<path d="M359.016 463.297C359.895 453.555 361.803 438.293 362.595 431.157C364.011 418.409 362.714 408.683 361.826 404.059C361.421 401.943 361.308 399.801 361.52 397.655C363.446 378.255 364.711 346.813 363.644 339.903L336.443 345.666C336.443 345.666 339.773 389.78 341.232 404.453C342.703 419.224 348.17 463.425 348.17 463.425C350.445 464.764 354.574 466.231 359.016 463.297Z" fill="#00313C"/>
<path d="M355.097 473.313C357.453 472.945 358.556 470.512 358.556 470.512C358.556 468.976 358.735 466.413 359.016 463.297C354.574 466.231 350.445 464.764 348.17 463.425L349.134 471.618C350.238 472.871 352.741 473.682 355.097 473.313Z" fill="#FFDCBF" fill-opacity="0.98"/>
<path d="M328.415 480.415C329.525 465.672 331.669 437.099 331.955 432.611C332.242 428.083 331.74 421.85 331.017 417.783C330.545 415.138 330.583 412.431 331.061 409.787L343.013 343.382L310.144 342.9L307.993 412.468C307.966 413.367 308 414.268 308.096 415.162L315.067 480.002C315.067 480.002 321.867 485.71 328.415 480.415Z" fill="#00313C"/>
<path d="M322.936 492.59C325.299 492.369 327.423 490.369 327.753 489.2C327.753 489.2 328.018 485.682 328.415 480.415C321.867 485.71 315.067 480.001 315.067 480.001L316.113 489.725C316.113 489.725 317.658 493.085 322.936 492.59Z" fill="#FFDCBF" fill-opacity="0.98"/>
<path d="M325.333 268.133L317.579 270.787L309.238 310.29L309.64 345.318C309.64 345.318 315.598 350.071 338.869 350.071C351.932 350.071 360.435 345.146 363.644 339.903L361.55 318.741C361.55 318.741 363.644 297.887 363.644 287.58C363.644 277.272 364.102 268.822 356.054 263.712L348.889 264.3L325.333 268.133Z" fill="#8256FF" fill-opacity="0.98"/>
<path d="M316.912 234.185L313.029 241.879C312.79 242.354 313.026 242.932 313.531 243.1L318.139 244.637L316.912 234.185Z" fill="#FFDCBF" fill-opacity="0.98"/>
<path d="M322.291 221.279C322.291 221.279 316.403 224.456 316.403 242.682C316.403 252.706 317.089 259.093 322.291 258.7C327.493 258.306 342.459 256.341 342.459 256.341V221.279H322.291Z" fill="#FFDCBF" fill-opacity="0.98"/>
<path d="M322.291 258.7C324.119 258.562 327.155 258.229 330.321 257.855V255.997C327.407 257.492 322.211 258.541 321.421 258.694C321.697 258.719 321.985 258.723 322.291 258.7Z" fill="#FFDCBF" fill-opacity="0.98"/>
<path d="M329.431 255.219V266.659H345.06V250.586L329.431 255.219Z" fill="#FFDCBF" fill-opacity="0.98"/>
<path d="M329.431 262.302C329.431 262.302 335.05 264.301 339.565 263.515C344.079 262.729 345.06 259.978 345.06 259.978C345.06 259.978 346.534 259.866 348.889 264.301C348.889 264.301 346.13 269.822 339.762 270.197C331.418 270.688 325.333 268.133 325.333 268.133C325.333 268.133 327.505 261.735 329.431 262.302Z" fill="#8256FF" fill-opacity="0.98"/>
<path d="M337.622 270.26C330.397 270.26 325.333 268.133 325.333 268.133C325.333 268.133 327.324 262.266 329.184 262.266C329.267 262.266 329.35 262.278 329.431 262.302C329.431 262.302 333.355 263.697 337.279 263.697C338.051 263.697 338.823 263.644 339.565 263.515C344.079 262.729 345.06 259.978 345.06 259.978C345.06 259.978 345.064 259.977 345.071 259.977C345.204 259.977 346.647 260.079 348.889 264.3C348.889 264.3 346.13 269.822 339.762 270.197C339.03 270.24 338.316 270.26 337.622 270.26Z" fill="#C190FF" fill-opacity="0.67"/>
<path d="M294.562 296.239L290.364 302.706C290.364 302.706 280.171 298.155 273.009 295.396C265.846 292.639 261.575 288.807 261.575 288.807C261.575 288.807 262.126 283.332 262.953 280.538C263.779 277.744 264.054 275.399 261.575 276.64C259.097 277.882 257.442 282.709 257.306 283.26C257.306 283.26 242.98 268.849 241.189 269.159C239.398 269.469 239.812 271.64 243.669 276.089C247.524 280.538 247.524 280.538 247.524 280.538C247.524 280.538 238.737 285.605 240.17 291.122C241.602 296.638 253.172 299.121 253.172 299.121C253.172 299.121 287.052 325.186 294.562 320.496C302.074 315.807 312.681 302.292 312.681 302.292L294.562 296.239Z" fill="#FFDCBF" fill-opacity="0.98"/>
<path d="M320.655 269.78C320.655 269.78 326.908 274.928 322.833 285.572C318.757 296.217 308.355 309.075 308.355 309.075C308.355 309.075 297.447 305.681 293.24 296.86L306.99 275.319C308.976 272.206 312.31 270.228 315.992 269.985C317.29 269.9 318.833 269.826 320.655 269.78Z" fill="#8256FF" fill-opacity="0.98"/>
<path d="M308.355 309.075C308.355 309.075 307.958 308.952 307.287 308.691C304.544 307.625 297.226 304.265 293.644 297.654C293.503 297.395 293.368 297.129 293.24 296.86L306.99 275.319C308.976 272.206 312.31 270.228 315.992 269.985C317.29 269.9 318.833 269.826 320.655 269.78C320.655 269.78 324.21 272.705 324.213 278.706C324.214 280.666 323.836 282.953 322.833 285.572C319.734 293.664 312.979 303.037 309.919 307.066C308.952 308.337 308.355 309.075 308.355 309.075Z" fill="#C190FF" fill-opacity="0.67"/>
<path d="M320.032 210.549C320.032 210.549 313.855 209.728 312.28 213.988C311.298 216.642 314.438 218.706 314.438 218.706C314.438 218.706 310.454 222.461 316.403 223.619C316.403 223.619 315.911 228.729 321.21 228.04C321.21 228.04 320.523 232.093 325.726 233.506C325.726 233.506 323.096 240.521 328.042 240.619H332.673L330.806 246.023C330.806 246.023 334.265 254.376 345.06 254.376C345.06 254.376 347.809 248.677 349.086 247.006C350.361 245.336 357.036 236.787 357.036 230.006C357.036 223.226 354.431 219.209 350.826 218.319C350.826 218.319 349.282 214.578 345.65 212.122C342.018 209.666 334.363 207.475 330.045 210.486C330.045 210.486 326.217 205.459 323.568 205.459C320.916 205.459 320.032 208.191 320.032 210.549Z" fill="black"/>
<path d="M328.042 240.618C328.042 240.618 327.591 233.506 333.578 233.506C339.565 233.506 338.144 246.023 330.806 246.023L328.042 240.618Z" fill="#FFDCBF" fill-opacity="0.98"/>
</g>
</g>
</g>
<defs>
<clipPath id="clip0_16_568">
<rect width="557" height="563" fill="white"/>
</clipPath>
</defs>
</svg>
